%
M48
M72
T01C0.0240
T02C0.0320
T03C0.0360
T04C0.1260
%
T01
X4180Y11180
X7180Y11180
T02
X3180Y4180
X4180Y4180
X5180Y4182
X5180Y5182
X5180Y6182
X5180Y7182
X5180Y8182
X5180Y9182
X5180Y10182
X3680Y9180
X3680Y8180
X3680Y7180
X3680Y6180
X2430Y6680
X1680Y6180
X1680Y7180
X1680Y9680
X2680Y9680
X5180Y3182
X5180Y2182
X5180Y1182
X8180Y1182
X8180Y2182
X8180Y3182
X8180Y4182
X8180Y5182
X8180Y6182
X8180Y7182
X8180Y8182
X8180Y9182
X8180Y10182
X9680Y8180
X10180Y7180
X10180Y6180
X10180Y4180
X11180Y4180
X12180Y3680
X12180Y4680
X13180Y4680
X13180Y3680
X12680Y8180
X11680Y8180
X10680Y8180
X12930Y9680
X13680Y9180
X13680Y10180
X13180Y12680
X13180Y13680
X13680Y15680
X13680Y16680
X11180Y11680
X10180Y11680
T03
X1680Y16180
X1680Y15180
X1680Y13180
X1680Y12180
X5180Y13180
X5180Y16180
X6180Y16180
X7180Y16180
X8180Y13180
X10180Y18180
X11180Y18180
X13180Y7180
X13180Y6180
X11680Y1680
X10680Y1680
T04
X1680Y1680
X10680Y14180
X8780Y15380
X10680Y16580
X13680Y18180
X1680Y18180
X13680Y1680
M30
