G75*
%MOIN*%
%OFA0B0*%
%FSLAX24Y24*%
%IPPOS*%
%LPD*%
%AMOC8*
5,1,8,0,0,1.08239X$1,22.5*
%
%ADD10C,0.0000*%
%ADD11OC8,0.0750*%
%ADD12C,0.0480*%
%ADD13OC8,0.0500*%
%ADD14OC8,0.0480*%
%ADD15C,0.0540*%
%ADD16OC8,0.0630*%
%ADD17C,0.0630*%
%ADD18R,0.1660X0.1660*%
%ADD19C,0.0100*%
%ADD20C,0.0160*%
%ADD21C,0.0200*%
%ADD22C,0.0360*%
D10*
X000180Y000180D02*
X000180Y019676D01*
X015050Y019676D01*
X015050Y000180D01*
X000180Y000180D01*
X001050Y001680D02*
X001052Y001730D01*
X001058Y001780D01*
X001068Y001829D01*
X001082Y001877D01*
X001099Y001924D01*
X001120Y001969D01*
X001145Y002013D01*
X001173Y002054D01*
X001205Y002093D01*
X001239Y002130D01*
X001276Y002164D01*
X001316Y002194D01*
X001358Y002221D01*
X001402Y002245D01*
X001448Y002266D01*
X001495Y002282D01*
X001543Y002295D01*
X001593Y002304D01*
X001642Y002309D01*
X001693Y002310D01*
X001743Y002307D01*
X001792Y002300D01*
X001841Y002289D01*
X001889Y002274D01*
X001935Y002256D01*
X001980Y002234D01*
X002023Y002208D01*
X002064Y002179D01*
X002103Y002147D01*
X002139Y002112D01*
X002171Y002074D01*
X002201Y002034D01*
X002228Y001991D01*
X002251Y001947D01*
X002270Y001901D01*
X002286Y001853D01*
X002298Y001804D01*
X002306Y001755D01*
X002310Y001705D01*
X002310Y001655D01*
X002306Y001605D01*
X002298Y001556D01*
X002286Y001507D01*
X002270Y001459D01*
X002251Y001413D01*
X002228Y001369D01*
X002201Y001326D01*
X002171Y001286D01*
X002139Y001248D01*
X002103Y001213D01*
X002064Y001181D01*
X002023Y001152D01*
X001980Y001126D01*
X001935Y001104D01*
X001889Y001086D01*
X001841Y001071D01*
X001792Y001060D01*
X001743Y001053D01*
X001693Y001050D01*
X001642Y001051D01*
X001593Y001056D01*
X001543Y001065D01*
X001495Y001078D01*
X001448Y001094D01*
X001402Y001115D01*
X001358Y001139D01*
X001316Y001166D01*
X001276Y001196D01*
X001239Y001230D01*
X001205Y001267D01*
X001173Y001306D01*
X001145Y001347D01*
X001120Y001391D01*
X001099Y001436D01*
X001082Y001483D01*
X001068Y001531D01*
X001058Y001580D01*
X001052Y001630D01*
X001050Y001680D01*
X013050Y001680D02*
X013052Y001730D01*
X013058Y001780D01*
X013068Y001829D01*
X013082Y001877D01*
X013099Y001924D01*
X013120Y001969D01*
X013145Y002013D01*
X013173Y002054D01*
X013205Y002093D01*
X013239Y002130D01*
X013276Y002164D01*
X013316Y002194D01*
X013358Y002221D01*
X013402Y002245D01*
X013448Y002266D01*
X013495Y002282D01*
X013543Y002295D01*
X013593Y002304D01*
X013642Y002309D01*
X013693Y002310D01*
X013743Y002307D01*
X013792Y002300D01*
X013841Y002289D01*
X013889Y002274D01*
X013935Y002256D01*
X013980Y002234D01*
X014023Y002208D01*
X014064Y002179D01*
X014103Y002147D01*
X014139Y002112D01*
X014171Y002074D01*
X014201Y002034D01*
X014228Y001991D01*
X014251Y001947D01*
X014270Y001901D01*
X014286Y001853D01*
X014298Y001804D01*
X014306Y001755D01*
X014310Y001705D01*
X014310Y001655D01*
X014306Y001605D01*
X014298Y001556D01*
X014286Y001507D01*
X014270Y001459D01*
X014251Y001413D01*
X014228Y001369D01*
X014201Y001326D01*
X014171Y001286D01*
X014139Y001248D01*
X014103Y001213D01*
X014064Y001181D01*
X014023Y001152D01*
X013980Y001126D01*
X013935Y001104D01*
X013889Y001086D01*
X013841Y001071D01*
X013792Y001060D01*
X013743Y001053D01*
X013693Y001050D01*
X013642Y001051D01*
X013593Y001056D01*
X013543Y001065D01*
X013495Y001078D01*
X013448Y001094D01*
X013402Y001115D01*
X013358Y001139D01*
X013316Y001166D01*
X013276Y001196D01*
X013239Y001230D01*
X013205Y001267D01*
X013173Y001306D01*
X013145Y001347D01*
X013120Y001391D01*
X013099Y001436D01*
X013082Y001483D01*
X013068Y001531D01*
X013058Y001580D01*
X013052Y001630D01*
X013050Y001680D01*
X013050Y018180D02*
X013052Y018230D01*
X013058Y018280D01*
X013068Y018329D01*
X013082Y018377D01*
X013099Y018424D01*
X013120Y018469D01*
X013145Y018513D01*
X013173Y018554D01*
X013205Y018593D01*
X013239Y018630D01*
X013276Y018664D01*
X013316Y018694D01*
X013358Y018721D01*
X013402Y018745D01*
X013448Y018766D01*
X013495Y018782D01*
X013543Y018795D01*
X013593Y018804D01*
X013642Y018809D01*
X013693Y018810D01*
X013743Y018807D01*
X013792Y018800D01*
X013841Y018789D01*
X013889Y018774D01*
X013935Y018756D01*
X013980Y018734D01*
X014023Y018708D01*
X014064Y018679D01*
X014103Y018647D01*
X014139Y018612D01*
X014171Y018574D01*
X014201Y018534D01*
X014228Y018491D01*
X014251Y018447D01*
X014270Y018401D01*
X014286Y018353D01*
X014298Y018304D01*
X014306Y018255D01*
X014310Y018205D01*
X014310Y018155D01*
X014306Y018105D01*
X014298Y018056D01*
X014286Y018007D01*
X014270Y017959D01*
X014251Y017913D01*
X014228Y017869D01*
X014201Y017826D01*
X014171Y017786D01*
X014139Y017748D01*
X014103Y017713D01*
X014064Y017681D01*
X014023Y017652D01*
X013980Y017626D01*
X013935Y017604D01*
X013889Y017586D01*
X013841Y017571D01*
X013792Y017560D01*
X013743Y017553D01*
X013693Y017550D01*
X013642Y017551D01*
X013593Y017556D01*
X013543Y017565D01*
X013495Y017578D01*
X013448Y017594D01*
X013402Y017615D01*
X013358Y017639D01*
X013316Y017666D01*
X013276Y017696D01*
X013239Y017730D01*
X013205Y017767D01*
X013173Y017806D01*
X013145Y017847D01*
X013120Y017891D01*
X013099Y017936D01*
X013082Y017983D01*
X013068Y018031D01*
X013058Y018080D01*
X013052Y018130D01*
X013050Y018180D01*
X001050Y018180D02*
X001052Y018230D01*
X001058Y018280D01*
X001068Y018329D01*
X001082Y018377D01*
X001099Y018424D01*
X001120Y018469D01*
X001145Y018513D01*
X001173Y018554D01*
X001205Y018593D01*
X001239Y018630D01*
X001276Y018664D01*
X001316Y018694D01*
X001358Y018721D01*
X001402Y018745D01*
X001448Y018766D01*
X001495Y018782D01*
X001543Y018795D01*
X001593Y018804D01*
X001642Y018809D01*
X001693Y018810D01*
X001743Y018807D01*
X001792Y018800D01*
X001841Y018789D01*
X001889Y018774D01*
X001935Y018756D01*
X001980Y018734D01*
X002023Y018708D01*
X002064Y018679D01*
X002103Y018647D01*
X002139Y018612D01*
X002171Y018574D01*
X002201Y018534D01*
X002228Y018491D01*
X002251Y018447D01*
X002270Y018401D01*
X002286Y018353D01*
X002298Y018304D01*
X002306Y018255D01*
X002310Y018205D01*
X002310Y018155D01*
X002306Y018105D01*
X002298Y018056D01*
X002286Y018007D01*
X002270Y017959D01*
X002251Y017913D01*
X002228Y017869D01*
X002201Y017826D01*
X002171Y017786D01*
X002139Y017748D01*
X002103Y017713D01*
X002064Y017681D01*
X002023Y017652D01*
X001980Y017626D01*
X001935Y017604D01*
X001889Y017586D01*
X001841Y017571D01*
X001792Y017560D01*
X001743Y017553D01*
X001693Y017550D01*
X001642Y017551D01*
X001593Y017556D01*
X001543Y017565D01*
X001495Y017578D01*
X001448Y017594D01*
X001402Y017615D01*
X001358Y017639D01*
X001316Y017666D01*
X001276Y017696D01*
X001239Y017730D01*
X001205Y017767D01*
X001173Y017806D01*
X001145Y017847D01*
X001120Y017891D01*
X001099Y017936D01*
X001082Y017983D01*
X001068Y018031D01*
X001058Y018080D01*
X001052Y018130D01*
X001050Y018180D01*
D11*
X005180Y013180D03*
X008180Y013180D03*
D12*
X007940Y010182D02*
X008420Y010182D01*
X008420Y009182D02*
X007940Y009182D01*
X007940Y008182D02*
X008420Y008182D01*
X008420Y007182D02*
X007940Y007182D01*
X007940Y006182D02*
X008420Y006182D01*
X008420Y005182D02*
X007940Y005182D01*
X007940Y004182D02*
X008420Y004182D01*
X008420Y003182D02*
X007940Y003182D01*
X007940Y002182D02*
X008420Y002182D01*
X008420Y001182D02*
X007940Y001182D01*
X005420Y001182D02*
X004940Y001182D01*
X004940Y002182D02*
X005420Y002182D01*
X005420Y003182D02*
X004940Y003182D01*
X004940Y004182D02*
X005420Y004182D01*
X005420Y005182D02*
X004940Y005182D01*
X004940Y006182D02*
X005420Y006182D01*
X005420Y007182D02*
X004940Y007182D01*
X004940Y008182D02*
X005420Y008182D01*
X005420Y009182D02*
X004940Y009182D01*
X004940Y010182D02*
X005420Y010182D01*
D13*
X012930Y009680D03*
X013680Y009180D03*
X013680Y010180D03*
D14*
X012680Y008180D03*
X011680Y008180D03*
X010680Y008180D03*
X010180Y007180D03*
X010180Y006180D03*
X010180Y004180D03*
X011180Y004180D03*
X012180Y003680D03*
X012180Y004680D03*
X013180Y004680D03*
X013180Y003680D03*
X009680Y008180D03*
X013180Y012680D03*
X013180Y013680D03*
X013680Y015680D03*
X013680Y016680D03*
X004180Y004180D03*
X003180Y004180D03*
X003680Y006180D03*
X003680Y007180D03*
X003680Y008180D03*
X003680Y009180D03*
X002430Y006680D03*
X001680Y006180D03*
X001680Y007180D03*
D15*
X001410Y012180D02*
X001950Y012180D01*
X001950Y013180D02*
X001410Y013180D01*
X001410Y015180D02*
X001950Y015180D01*
X001950Y016180D02*
X001410Y016180D01*
X005180Y015910D02*
X005180Y016450D01*
X006180Y016450D02*
X006180Y015910D01*
X007180Y015910D02*
X007180Y016450D01*
X010180Y017910D02*
X010180Y018450D01*
X011180Y018450D02*
X011180Y017910D01*
X012910Y007180D02*
X013450Y007180D01*
X013450Y006180D02*
X012910Y006180D01*
X011680Y001950D02*
X011680Y001410D01*
X010680Y001410D02*
X010680Y001950D01*
D16*
X011180Y011680D03*
X002680Y009680D03*
D17*
X001680Y009680D03*
X010180Y011680D03*
D18*
X010680Y014180D03*
X008780Y015380D03*
X010680Y016580D03*
D19*
X013180Y013680D02*
X012180Y012680D01*
X009680Y012680D01*
X009180Y012180D01*
X006680Y012180D01*
X006680Y010180D01*
X005680Y009180D01*
X005180Y009180D01*
X005180Y009182D01*
X005180Y008182D02*
X005180Y008180D01*
X005680Y008180D01*
X007180Y009680D01*
X007180Y011180D01*
X009680Y007680D02*
X011180Y007680D01*
X011680Y007180D01*
X013180Y007180D01*
X013180Y006180D02*
X010180Y006180D01*
X009180Y007180D02*
X009680Y007680D01*
X009180Y007180D02*
X008180Y007180D01*
X008180Y007182D01*
X010180Y004180D02*
X011680Y002680D01*
X012180Y002680D01*
X013180Y003680D01*
X005180Y007180D02*
X005180Y007182D01*
X005180Y007180D02*
X004180Y008180D01*
X004180Y011180D01*
D20*
X004411Y010958D02*
X004940Y010958D01*
X004940Y010800D02*
X004370Y010800D01*
X004370Y010917D02*
X004451Y010999D01*
X004500Y011116D01*
X004500Y011244D01*
X004451Y011361D01*
X004361Y011451D01*
X004244Y011500D01*
X004116Y011500D01*
X003999Y011451D01*
X003909Y011361D01*
X003860Y011244D01*
X003860Y011116D01*
X003909Y010999D01*
X003990Y010917D01*
X003990Y009407D01*
X003837Y009560D01*
X003523Y009560D01*
X003300Y009337D01*
X003300Y009023D01*
X003523Y008800D01*
X003837Y008800D01*
X003990Y008953D01*
X003990Y008407D01*
X003837Y008560D01*
X003523Y008560D01*
X003300Y008337D01*
X003300Y008023D01*
X003523Y007800D01*
X003837Y007800D01*
X004060Y008023D01*
X004060Y008031D01*
X004101Y007990D01*
X004656Y007435D01*
X004618Y007397D01*
X004560Y007258D01*
X004560Y007106D01*
X004618Y006967D01*
X004725Y006860D01*
X004864Y006802D01*
X005496Y006802D01*
X005635Y006860D01*
X005742Y006967D01*
X005800Y007106D01*
X005800Y007258D01*
X005742Y007397D01*
X005635Y007504D01*
X005496Y007562D01*
X005067Y007562D01*
X004800Y007829D01*
X004864Y007802D01*
X005496Y007802D01*
X005635Y007860D01*
X005742Y007967D01*
X005752Y007990D01*
X005759Y007990D01*
X007259Y009490D01*
X007370Y009601D01*
X007370Y010917D01*
X007451Y010999D01*
X007500Y011116D01*
X007500Y011244D01*
X007451Y011361D01*
X007361Y011451D01*
X007244Y011500D01*
X007116Y011500D01*
X006999Y011451D01*
X006909Y011361D01*
X006870Y011268D01*
X006870Y011990D01*
X009259Y011990D01*
X009759Y012490D01*
X012259Y012490D01*
X013069Y013300D01*
X013337Y013300D01*
X013560Y013523D01*
X013560Y013837D01*
X013337Y014060D01*
X013023Y014060D01*
X012800Y013837D01*
X012800Y013569D01*
X012101Y012870D01*
X009601Y012870D01*
X009490Y012759D01*
X009101Y012370D01*
X006601Y012370D01*
X006490Y012259D01*
X006490Y010259D01*
X005685Y009454D01*
X005635Y009504D01*
X005496Y009562D01*
X004864Y009562D01*
X004725Y009504D01*
X004618Y009397D01*
X004560Y009258D01*
X004560Y009106D01*
X004618Y008967D01*
X004725Y008860D01*
X004864Y008802D01*
X005496Y008802D01*
X005635Y008860D01*
X005742Y008967D01*
X005752Y008990D01*
X005759Y008990D01*
X006759Y009990D01*
X006870Y010101D01*
X006870Y011092D01*
X006909Y010999D01*
X006990Y010917D01*
X006990Y009759D01*
X005685Y008454D01*
X005635Y008504D01*
X005496Y008562D01*
X004864Y008562D01*
X004725Y008504D01*
X004618Y008397D01*
X004560Y008258D01*
X004560Y008106D01*
X004587Y008042D01*
X004370Y008259D01*
X004370Y010917D01*
X004500Y011117D02*
X004940Y011117D01*
X004940Y011275D02*
X004487Y011275D01*
X004379Y011434D02*
X004940Y011434D01*
X004940Y011592D02*
X000360Y011592D01*
X000360Y011434D02*
X003981Y011434D01*
X003873Y011275D02*
X000360Y011275D01*
X000360Y011117D02*
X003860Y011117D01*
X003949Y010958D02*
X000360Y010958D01*
X000360Y010800D02*
X003990Y010800D01*
X003990Y010641D02*
X000360Y010641D01*
X000360Y010483D02*
X003990Y010483D01*
X003990Y010324D02*
X000360Y010324D01*
X000360Y010166D02*
X002465Y010166D01*
X002475Y010175D02*
X002185Y009885D01*
X002185Y009680D01*
X002680Y009680D01*
X003175Y009680D01*
X003175Y009885D01*
X002885Y010175D01*
X002680Y010175D01*
X002680Y009680D01*
X002680Y009680D01*
X002680Y009680D01*
X003175Y009680D01*
X003175Y009475D01*
X002885Y009185D01*
X002680Y009185D01*
X002680Y009680D01*
X002680Y009680D01*
X002680Y009680D01*
X002680Y010175D01*
X002475Y010175D01*
X002680Y010166D02*
X002680Y010166D01*
X002680Y010007D02*
X002680Y010007D01*
X002680Y009849D02*
X002680Y009849D01*
X002680Y009690D02*
X002680Y009690D01*
X002680Y009680D02*
X002185Y009680D01*
X002185Y009475D01*
X002475Y009185D01*
X002680Y009185D01*
X002680Y009680D01*
X002680Y009532D02*
X002680Y009532D01*
X002680Y009373D02*
X002680Y009373D01*
X002680Y009215D02*
X002680Y009215D01*
X002915Y009215D02*
X003300Y009215D01*
X003300Y009056D02*
X000360Y009056D01*
X000360Y008898D02*
X003425Y008898D01*
X003385Y008422D02*
X000360Y008422D01*
X000360Y008264D02*
X003300Y008264D01*
X003300Y008105D02*
X000360Y008105D01*
X000360Y007947D02*
X003376Y007947D01*
X003523Y007560D02*
X003300Y007337D01*
X003300Y007023D01*
X003523Y006800D01*
X003837Y006800D01*
X004060Y007023D01*
X004060Y007337D01*
X003837Y007560D01*
X003523Y007560D01*
X003434Y007471D02*
X001983Y007471D01*
X002100Y007354D02*
X001854Y007600D01*
X001680Y007600D01*
X001680Y007180D01*
X001680Y007180D01*
X002100Y007180D01*
X002100Y007354D01*
X002100Y007313D02*
X003300Y007313D01*
X003300Y007154D02*
X002100Y007154D01*
X002100Y007180D02*
X001680Y007180D01*
X001680Y007180D01*
X001680Y007180D01*
X001260Y007180D01*
X001260Y007354D01*
X001506Y007600D01*
X001680Y007600D01*
X001680Y007180D01*
X001680Y006760D01*
X001854Y006760D01*
X002100Y007006D01*
X002100Y007180D01*
X002089Y006996D02*
X002208Y006996D01*
X002273Y007060D02*
X002050Y006837D01*
X001931Y006837D01*
X002050Y006837D02*
X002050Y006523D01*
X002273Y006300D01*
X002587Y006300D01*
X002810Y006523D01*
X002810Y006837D01*
X003486Y006837D01*
X003327Y006996D02*
X002652Y006996D01*
X002587Y007060D02*
X002810Y006837D01*
X002810Y006679D02*
X010342Y006679D01*
X010337Y006560D02*
X010023Y006560D01*
X009800Y006337D01*
X009800Y006023D01*
X010023Y005800D01*
X010337Y005800D01*
X010527Y005990D01*
X012545Y005990D01*
X012562Y005948D01*
X012678Y005832D01*
X012828Y005770D01*
X013532Y005770D01*
X013682Y005832D01*
X013798Y005948D01*
X013860Y006098D01*
X013860Y006262D01*
X013798Y006412D01*
X013770Y006440D01*
X014228Y006440D01*
X014316Y006477D01*
X014383Y006544D01*
X014420Y006632D01*
X014420Y008728D01*
X014383Y008816D01*
X014316Y008883D01*
X014070Y009129D01*
X014070Y009342D01*
X013842Y009570D01*
X013518Y009570D01*
X013290Y009342D01*
X013290Y009018D01*
X013518Y008790D01*
X013731Y008790D01*
X013940Y008581D01*
X013940Y006920D01*
X013770Y006920D01*
X013798Y006948D01*
X013860Y007098D01*
X013860Y007262D01*
X013798Y007412D01*
X013682Y007528D01*
X013532Y007590D01*
X012828Y007590D01*
X012678Y007528D01*
X012562Y007412D01*
X012545Y007370D01*
X011759Y007370D01*
X011259Y007870D01*
X010907Y007870D01*
X011060Y008023D01*
X011060Y008221D01*
X011279Y008440D01*
X011403Y008440D01*
X011300Y008337D01*
X011300Y008023D01*
X011523Y007800D01*
X011837Y007800D01*
X012060Y008023D01*
X012060Y008337D01*
X011957Y008440D01*
X012081Y008440D01*
X012300Y008221D01*
X012300Y008023D01*
X012523Y007800D01*
X012837Y007800D01*
X013060Y008023D01*
X013060Y008337D01*
X012837Y008560D01*
X012639Y008560D01*
X012316Y008883D01*
X012228Y008920D01*
X011132Y008920D01*
X011044Y008883D01*
X010977Y008816D01*
X010721Y008560D01*
X010523Y008560D01*
X010300Y008337D01*
X010300Y008023D01*
X010453Y007870D01*
X009907Y007870D01*
X010060Y008023D01*
X010060Y008337D01*
X009837Y008560D01*
X009523Y008560D01*
X009300Y008337D01*
X009300Y008023D01*
X009523Y007800D01*
X009531Y007800D01*
X009101Y007370D01*
X008753Y007370D01*
X008742Y007397D01*
X008635Y007504D01*
X008496Y007562D01*
X007864Y007562D01*
X007725Y007504D01*
X007618Y007397D01*
X007560Y007258D01*
X007560Y007106D01*
X007618Y006967D01*
X007725Y006860D01*
X007864Y006802D01*
X008496Y006802D01*
X008635Y006860D01*
X008742Y006967D01*
X008752Y006990D01*
X009259Y006990D01*
X009759Y007490D01*
X009953Y007490D01*
X009800Y007337D01*
X009800Y007023D01*
X010023Y006800D01*
X010221Y006800D01*
X010544Y006477D01*
X010632Y006440D01*
X012590Y006440D01*
X012562Y006412D01*
X012545Y006370D01*
X010527Y006370D01*
X010337Y006560D01*
X010377Y006520D02*
X010501Y006520D01*
X009986Y006837D02*
X008580Y006837D01*
X008496Y006562D02*
X008635Y006504D01*
X008742Y006397D01*
X008800Y006258D01*
X008800Y006106D01*
X008742Y005967D01*
X008635Y005860D01*
X008496Y005802D01*
X007864Y005802D01*
X007725Y005860D01*
X007618Y005967D01*
X007560Y006106D01*
X007560Y006258D01*
X007618Y006397D01*
X007725Y006504D01*
X007864Y006562D01*
X008496Y006562D01*
X008597Y006520D02*
X009983Y006520D01*
X009824Y006362D02*
X008757Y006362D01*
X008800Y006203D02*
X009800Y006203D01*
X009800Y006045D02*
X008774Y006045D01*
X008661Y005886D02*
X009937Y005886D01*
X010423Y005886D02*
X012624Y005886D01*
X012354Y005100D02*
X012180Y005100D01*
X012180Y004680D01*
X012600Y004680D01*
X012600Y004854D01*
X012354Y005100D01*
X012360Y005094D02*
X014870Y005094D01*
X014870Y005252D02*
X008800Y005252D01*
X008800Y005258D02*
X008742Y005397D01*
X008635Y005504D01*
X008496Y005562D01*
X007864Y005562D01*
X007725Y005504D01*
X007618Y005397D01*
X007560Y005258D01*
X007560Y005106D01*
X007618Y004967D01*
X007725Y004860D01*
X007864Y004802D01*
X008496Y004802D01*
X008635Y004860D01*
X008742Y004967D01*
X008800Y005106D01*
X008800Y005258D01*
X008795Y005094D02*
X012000Y005094D01*
X012006Y005100D02*
X011760Y004854D01*
X011760Y004680D01*
X012180Y004680D01*
X012180Y004680D01*
X012180Y004680D01*
X012600Y004680D01*
X012600Y004506D01*
X012354Y004260D01*
X012180Y004260D01*
X012180Y004680D01*
X012180Y004680D01*
X012180Y004680D01*
X012180Y005100D01*
X012006Y005100D01*
X012180Y005094D02*
X012180Y005094D01*
X012180Y004935D02*
X012180Y004935D01*
X012180Y004777D02*
X012180Y004777D01*
X012180Y004680D02*
X011760Y004680D01*
X011760Y004506D01*
X012006Y004260D01*
X012180Y004260D01*
X012180Y004680D01*
X012180Y004618D02*
X012180Y004618D01*
X012180Y004460D02*
X012180Y004460D01*
X012180Y004301D02*
X012180Y004301D01*
X012180Y004100D02*
X012006Y004100D01*
X011760Y003854D01*
X011760Y003680D01*
X012180Y003680D01*
X012600Y003680D01*
X012600Y003854D01*
X012354Y004100D01*
X012180Y004100D01*
X012180Y003680D01*
X012180Y003680D01*
X012180Y003680D01*
X012600Y003680D01*
X012600Y003506D01*
X012354Y003260D01*
X012180Y003260D01*
X012180Y003680D01*
X012180Y003680D01*
X012180Y003680D01*
X012180Y004100D01*
X012180Y003984D02*
X012180Y003984D01*
X012180Y003826D02*
X012180Y003826D01*
X012180Y003680D02*
X011760Y003680D01*
X011760Y003506D01*
X012006Y003260D01*
X012180Y003260D01*
X012180Y003680D01*
X012180Y003667D02*
X012180Y003667D01*
X012180Y003509D02*
X012180Y003509D01*
X012180Y003350D02*
X012180Y003350D01*
X012423Y003192D02*
X011437Y003192D01*
X011279Y003350D02*
X011916Y003350D01*
X011760Y003509D02*
X011120Y003509D01*
X010962Y003667D02*
X011760Y003667D01*
X011760Y003826D02*
X011363Y003826D01*
X011337Y003800D02*
X011560Y004023D01*
X011560Y004337D01*
X011337Y004560D01*
X011023Y004560D01*
X010800Y004337D01*
X010800Y004023D01*
X011023Y003800D01*
X011337Y003800D01*
X011521Y003984D02*
X011890Y003984D01*
X011965Y004301D02*
X011560Y004301D01*
X011560Y004143D02*
X014870Y004143D01*
X014870Y004301D02*
X013338Y004301D01*
X013337Y004300D02*
X013560Y004523D01*
X013560Y004837D01*
X013337Y005060D01*
X013023Y005060D01*
X012800Y004837D01*
X012800Y004523D01*
X013023Y004300D01*
X013337Y004300D01*
X013497Y004460D02*
X014870Y004460D01*
X014870Y004618D02*
X013560Y004618D01*
X013560Y004777D02*
X014870Y004777D01*
X014870Y004935D02*
X013462Y004935D01*
X013022Y004301D02*
X012395Y004301D01*
X012553Y004460D02*
X012863Y004460D01*
X012800Y004618D02*
X012600Y004618D01*
X012600Y004777D02*
X012800Y004777D01*
X012898Y004935D02*
X012519Y004935D01*
X011841Y004935D02*
X008710Y004935D01*
X008496Y004562D02*
X008635Y004504D01*
X008742Y004397D01*
X008800Y004258D01*
X008800Y004106D01*
X008742Y003967D01*
X008635Y003860D01*
X008496Y003802D01*
X007864Y003802D01*
X007725Y003860D01*
X007618Y003967D01*
X007560Y004106D01*
X007560Y004258D01*
X007618Y004397D01*
X007725Y004504D01*
X007864Y004562D01*
X008496Y004562D01*
X008680Y004460D02*
X009922Y004460D01*
X010023Y004560D02*
X009800Y004337D01*
X009800Y004023D01*
X010023Y003800D01*
X010291Y003800D01*
X011601Y002490D01*
X012259Y002490D01*
X012370Y002601D01*
X013069Y003300D01*
X013337Y003300D01*
X013560Y003523D01*
X013560Y003837D01*
X013337Y004060D01*
X013023Y004060D01*
X012800Y003837D01*
X012800Y003569D01*
X012101Y002870D01*
X011759Y002870D01*
X010560Y004069D01*
X010560Y004337D01*
X010337Y004560D01*
X010023Y004560D01*
X009800Y004301D02*
X008782Y004301D01*
X008800Y004143D02*
X009800Y004143D01*
X009839Y003984D02*
X008749Y003984D01*
X008552Y003826D02*
X009997Y003826D01*
X010424Y003667D02*
X000360Y003667D01*
X000360Y003509D02*
X004735Y003509D01*
X004725Y003504D02*
X004618Y003397D01*
X004560Y003258D01*
X004560Y003106D01*
X004618Y002967D01*
X004725Y002860D01*
X004864Y002802D01*
X005496Y002802D01*
X005635Y002860D01*
X005742Y002967D01*
X005800Y003106D01*
X005800Y003258D01*
X005742Y003397D01*
X005635Y003504D01*
X005496Y003562D01*
X004864Y003562D01*
X004725Y003504D01*
X004598Y003350D02*
X000360Y003350D01*
X000360Y003192D02*
X004560Y003192D01*
X004590Y003033D02*
X000360Y003033D01*
X000360Y002875D02*
X004710Y002875D01*
X004854Y002558D02*
X000360Y002558D01*
X000360Y002716D02*
X011375Y002716D01*
X011217Y002875D02*
X008650Y002875D01*
X008635Y002860D02*
X008742Y002967D01*
X008800Y003106D01*
X008800Y003258D01*
X008742Y003397D01*
X008635Y003504D01*
X008496Y003562D01*
X007864Y003562D01*
X007725Y003504D01*
X007618Y003397D01*
X007560Y003258D01*
X007560Y003106D01*
X007618Y002967D01*
X007725Y002860D01*
X007864Y002802D01*
X008496Y002802D01*
X008635Y002860D01*
X008770Y003033D02*
X011058Y003033D01*
X010900Y003192D02*
X008800Y003192D01*
X008762Y003350D02*
X010741Y003350D01*
X010583Y003509D02*
X008625Y003509D01*
X008496Y002562D02*
X007864Y002562D01*
X007725Y002504D01*
X007618Y002397D01*
X007560Y002258D01*
X007560Y002106D01*
X007618Y001967D01*
X007725Y001860D01*
X007864Y001802D01*
X008496Y001802D01*
X008635Y001860D01*
X008742Y001967D01*
X008800Y002106D01*
X008800Y002258D01*
X008742Y002397D01*
X008635Y002504D01*
X008496Y002562D01*
X008506Y002558D02*
X011534Y002558D01*
X011598Y002360D02*
X011448Y002298D01*
X011332Y002182D01*
X011270Y002032D01*
X011270Y001328D01*
X011332Y001178D01*
X011448Y001062D01*
X011598Y001000D01*
X011762Y001000D01*
X011912Y001062D01*
X012028Y001178D01*
X012090Y001328D01*
X012090Y002032D01*
X012028Y002182D01*
X011912Y002298D01*
X011762Y002360D01*
X011598Y002360D01*
X011391Y002241D02*
X011025Y002241D01*
X011023Y002243D02*
X010973Y002293D01*
X010916Y002335D01*
X010853Y002367D01*
X010785Y002389D01*
X010715Y002400D01*
X010690Y002400D01*
X010690Y001690D01*
X010670Y001690D01*
X010670Y002400D01*
X010645Y002400D01*
X010575Y002389D01*
X010507Y002367D01*
X010444Y002335D01*
X010387Y002293D01*
X010337Y002243D01*
X010295Y002186D01*
X010263Y002123D01*
X010241Y002055D01*
X010230Y001985D01*
X010230Y001690D01*
X010670Y001690D01*
X010670Y001670D01*
X010230Y001670D01*
X010230Y001375D01*
X010241Y001305D01*
X010263Y001237D01*
X010295Y001174D01*
X010337Y001117D01*
X010387Y001067D01*
X010444Y001025D01*
X010507Y000993D01*
X010575Y000971D01*
X010645Y000960D01*
X010670Y000960D01*
X010670Y001670D01*
X010690Y001670D01*
X010690Y001690D01*
X011130Y001690D01*
X011130Y001985D01*
X011119Y002055D01*
X011097Y002123D01*
X011065Y002186D01*
X011023Y002243D01*
X011110Y002082D02*
X011291Y002082D01*
X011270Y001924D02*
X011130Y001924D01*
X011130Y001765D02*
X011270Y001765D01*
X011270Y001607D02*
X011130Y001607D01*
X011130Y001670D02*
X010690Y001670D01*
X010690Y000960D01*
X010715Y000960D01*
X010785Y000971D01*
X010853Y000993D01*
X010916Y001025D01*
X010973Y001067D01*
X011023Y001117D01*
X011065Y001174D01*
X011097Y001237D01*
X011119Y001305D01*
X011130Y001375D01*
X011130Y001670D01*
X011130Y001448D02*
X011270Y001448D01*
X011286Y001290D02*
X011114Y001290D01*
X011034Y001131D02*
X011379Y001131D01*
X011981Y001131D02*
X013084Y001131D01*
X012993Y001221D02*
X013221Y000993D01*
X013519Y000870D01*
X013841Y000870D01*
X014139Y000993D01*
X014367Y001221D01*
X014490Y001519D01*
X014490Y001841D01*
X014367Y002139D01*
X014139Y002367D01*
X013841Y002490D01*
X013519Y002490D01*
X013221Y002367D01*
X012993Y002139D01*
X012870Y001841D01*
X012870Y001519D01*
X012993Y001221D01*
X012965Y001290D02*
X012074Y001290D01*
X012090Y001448D02*
X012899Y001448D01*
X012870Y001607D02*
X012090Y001607D01*
X012090Y001765D02*
X012870Y001765D01*
X012904Y001924D02*
X012090Y001924D01*
X012069Y002082D02*
X012970Y002082D01*
X013095Y002241D02*
X011969Y002241D01*
X012326Y002558D02*
X014870Y002558D01*
X014870Y002716D02*
X012485Y002716D01*
X012643Y002875D02*
X014870Y002875D01*
X014870Y003033D02*
X012802Y003033D01*
X012960Y003192D02*
X014870Y003192D01*
X014870Y003350D02*
X013387Y003350D01*
X013546Y003509D02*
X014870Y003509D01*
X014870Y003667D02*
X013560Y003667D01*
X013560Y003826D02*
X014870Y003826D01*
X014870Y003984D02*
X013413Y003984D01*
X012947Y003984D02*
X012470Y003984D01*
X012600Y003826D02*
X012800Y003826D01*
X012800Y003667D02*
X012600Y003667D01*
X012600Y003509D02*
X012740Y003509D01*
X012581Y003350D02*
X012444Y003350D01*
X012264Y003033D02*
X011596Y003033D01*
X011754Y002875D02*
X012106Y002875D01*
X010997Y003826D02*
X010803Y003826D01*
X010839Y003984D02*
X010645Y003984D01*
X010560Y004143D02*
X010800Y004143D01*
X010800Y004301D02*
X010560Y004301D01*
X010438Y004460D02*
X010922Y004460D01*
X011438Y004460D02*
X011807Y004460D01*
X011760Y004618D02*
X000360Y004618D01*
X000360Y004460D02*
X002922Y004460D01*
X003023Y004560D02*
X002800Y004337D01*
X002800Y004023D01*
X003023Y003800D01*
X003337Y003800D01*
X003560Y004023D01*
X003560Y004337D01*
X003337Y004560D01*
X003023Y004560D01*
X002800Y004301D02*
X000360Y004301D01*
X000360Y004143D02*
X002800Y004143D01*
X002839Y003984D02*
X000360Y003984D01*
X000360Y003826D02*
X002997Y003826D01*
X003363Y003826D02*
X003997Y003826D01*
X004023Y003800D02*
X004337Y003800D01*
X004560Y004023D01*
X004560Y004337D01*
X004337Y004560D01*
X004023Y004560D01*
X003800Y004337D01*
X003800Y004023D01*
X004023Y003800D01*
X003839Y003984D02*
X003521Y003984D01*
X003560Y004143D02*
X003800Y004143D01*
X003800Y004301D02*
X003560Y004301D01*
X003438Y004460D02*
X003922Y004460D01*
X004438Y004460D02*
X004680Y004460D01*
X004725Y004504D02*
X004618Y004397D01*
X004560Y004258D01*
X004560Y004106D01*
X004618Y003967D01*
X004725Y003860D01*
X004864Y003802D01*
X005496Y003802D01*
X005635Y003860D01*
X005742Y003967D01*
X005800Y004106D01*
X005800Y004258D01*
X005742Y004397D01*
X005635Y004504D01*
X005496Y004562D01*
X004864Y004562D01*
X004725Y004504D01*
X004578Y004301D02*
X004560Y004301D01*
X004560Y004143D02*
X004560Y004143D01*
X004521Y003984D02*
X004611Y003984D01*
X004808Y003826D02*
X004363Y003826D01*
X004725Y004860D02*
X004864Y004802D01*
X005496Y004802D01*
X005635Y004860D01*
X005742Y004967D01*
X005800Y005106D01*
X005800Y005258D01*
X005742Y005397D01*
X005635Y005504D01*
X005496Y005562D01*
X004864Y005562D01*
X004725Y005504D01*
X004618Y005397D01*
X004560Y005258D01*
X004560Y005106D01*
X004618Y004967D01*
X004725Y004860D01*
X004650Y004935D02*
X000360Y004935D01*
X000360Y004777D02*
X011760Y004777D01*
X010722Y002399D02*
X013299Y002399D01*
X014061Y002399D02*
X014870Y002399D01*
X014870Y002241D02*
X014265Y002241D01*
X014390Y002082D02*
X014870Y002082D01*
X014870Y001924D02*
X014456Y001924D01*
X014490Y001765D02*
X014870Y001765D01*
X014870Y001607D02*
X014490Y001607D01*
X014461Y001448D02*
X014870Y001448D01*
X014870Y001290D02*
X014395Y001290D01*
X014276Y001131D02*
X014870Y001131D01*
X014870Y000973D02*
X014088Y000973D01*
X014870Y000814D02*
X008525Y000814D01*
X008496Y000802D02*
X008635Y000860D01*
X008742Y000967D01*
X008800Y001106D01*
X008800Y001258D01*
X008742Y001397D01*
X008635Y001504D01*
X008496Y001562D01*
X007864Y001562D01*
X007725Y001504D01*
X007618Y001397D01*
X007560Y001258D01*
X007560Y001106D01*
X007618Y000967D01*
X007725Y000860D01*
X007864Y000802D01*
X008496Y000802D01*
X008745Y000973D02*
X010570Y000973D01*
X010670Y000973D02*
X010690Y000973D01*
X010790Y000973D02*
X013272Y000973D01*
X014870Y000656D02*
X000360Y000656D01*
X000360Y000814D02*
X004835Y000814D01*
X004864Y000802D02*
X005496Y000802D01*
X005635Y000860D01*
X005742Y000967D01*
X005800Y001106D01*
X005800Y001258D01*
X005742Y001397D01*
X005635Y001504D01*
X005496Y001562D01*
X004864Y001562D01*
X004725Y001504D01*
X004618Y001397D01*
X004560Y001258D01*
X004560Y001106D01*
X004618Y000967D01*
X004725Y000860D01*
X004864Y000802D01*
X004615Y000973D02*
X002088Y000973D01*
X002139Y000993D02*
X002367Y001221D01*
X002490Y001519D01*
X002490Y001841D01*
X002367Y002139D01*
X002139Y002367D01*
X001841Y002490D01*
X001519Y002490D01*
X001221Y002367D01*
X000993Y002139D01*
X000870Y001841D01*
X000870Y001519D01*
X000993Y001221D01*
X001221Y000993D01*
X001519Y000870D01*
X001841Y000870D01*
X002139Y000993D01*
X002276Y001131D02*
X004560Y001131D01*
X004573Y001290D02*
X002395Y001290D01*
X002461Y001448D02*
X004669Y001448D01*
X004864Y001802D02*
X004725Y001860D01*
X004618Y001967D01*
X004560Y002106D01*
X004560Y002258D01*
X004618Y002397D01*
X004725Y002504D01*
X004864Y002562D01*
X005496Y002562D01*
X005635Y002504D01*
X005742Y002397D01*
X005800Y002258D01*
X005800Y002106D01*
X005742Y001967D01*
X005635Y001860D01*
X005496Y001802D01*
X004864Y001802D01*
X004661Y001924D02*
X002456Y001924D01*
X002490Y001765D02*
X010230Y001765D01*
X010230Y001607D02*
X002490Y001607D01*
X002390Y002082D02*
X004570Y002082D01*
X004560Y002241D02*
X002265Y002241D01*
X002061Y002399D02*
X004620Y002399D01*
X005506Y002558D02*
X007854Y002558D01*
X007620Y002399D02*
X005740Y002399D01*
X005800Y002241D02*
X007560Y002241D01*
X007570Y002082D02*
X005790Y002082D01*
X005699Y001924D02*
X007661Y001924D01*
X007669Y001448D02*
X005691Y001448D01*
X005787Y001290D02*
X007573Y001290D01*
X007560Y001131D02*
X005800Y001131D01*
X005745Y000973D02*
X007615Y000973D01*
X007835Y000814D02*
X005525Y000814D01*
X005650Y002875D02*
X007710Y002875D01*
X007590Y003033D02*
X005770Y003033D01*
X005800Y003192D02*
X007560Y003192D01*
X007598Y003350D02*
X005762Y003350D01*
X005625Y003509D02*
X007735Y003509D01*
X007808Y003826D02*
X005552Y003826D01*
X005749Y003984D02*
X007611Y003984D01*
X007560Y004143D02*
X005800Y004143D01*
X005782Y004301D02*
X007578Y004301D01*
X007680Y004460D02*
X005680Y004460D01*
X005710Y004935D02*
X007650Y004935D01*
X007565Y005094D02*
X005795Y005094D01*
X005800Y005252D02*
X007560Y005252D01*
X007631Y005411D02*
X005729Y005411D01*
X005496Y005802D02*
X005635Y005860D01*
X005742Y005967D01*
X005800Y006106D01*
X005800Y006258D01*
X005742Y006397D01*
X005635Y006504D01*
X005496Y006562D01*
X004864Y006562D01*
X004725Y006504D01*
X004618Y006397D01*
X004560Y006258D01*
X004560Y006106D01*
X004618Y005967D01*
X004725Y005860D01*
X004864Y005802D01*
X005496Y005802D01*
X005661Y005886D02*
X007699Y005886D01*
X007586Y006045D02*
X005774Y006045D01*
X005800Y006203D02*
X007560Y006203D01*
X007603Y006362D02*
X005757Y006362D01*
X005597Y006520D02*
X007763Y006520D01*
X007780Y006837D02*
X005580Y006837D01*
X005754Y006996D02*
X007606Y006996D01*
X007560Y007154D02*
X005800Y007154D01*
X005777Y007313D02*
X007583Y007313D01*
X007692Y007471D02*
X005668Y007471D01*
X005722Y007947D02*
X007638Y007947D01*
X007618Y007967D02*
X007725Y007860D01*
X007864Y007802D01*
X008496Y007802D01*
X008635Y007860D01*
X008742Y007967D01*
X008800Y008106D01*
X008800Y008258D01*
X008742Y008397D01*
X008635Y008504D01*
X008496Y008562D01*
X007864Y008562D01*
X007725Y008504D01*
X007618Y008397D01*
X007560Y008258D01*
X007560Y008106D01*
X007618Y007967D01*
X007561Y008105D02*
X005874Y008105D01*
X006032Y008264D02*
X007562Y008264D01*
X007643Y008422D02*
X006191Y008422D01*
X006349Y008581D02*
X010741Y008581D01*
X010900Y008739D02*
X006508Y008739D01*
X006666Y008898D02*
X007687Y008898D01*
X007725Y008860D02*
X007864Y008802D01*
X008496Y008802D01*
X008635Y008860D01*
X008742Y008967D01*
X008800Y009106D01*
X008800Y009258D01*
X008742Y009397D01*
X008635Y009504D01*
X008496Y009562D01*
X007864Y009562D01*
X007725Y009504D01*
X007618Y009397D01*
X007560Y009258D01*
X007560Y009106D01*
X007618Y008967D01*
X007725Y008860D01*
X007581Y009056D02*
X006825Y009056D01*
X006983Y009215D02*
X007560Y009215D01*
X007608Y009373D02*
X007142Y009373D01*
X007300Y009532D02*
X007791Y009532D01*
X007842Y009772D02*
X007779Y009793D01*
X007720Y009823D01*
X007666Y009862D01*
X007620Y009908D01*
X007581Y009962D01*
X007551Y010021D01*
X007530Y010084D01*
X007520Y010149D01*
X007520Y010182D01*
X008180Y010182D01*
X008180Y010182D01*
X008180Y010602D01*
X007907Y010602D01*
X007842Y010592D01*
X007779Y010571D01*
X007720Y010541D01*
X007666Y010502D01*
X007620Y010456D01*
X007581Y010402D01*
X007551Y010343D01*
X007530Y010280D01*
X007520Y010215D01*
X007520Y010182D01*
X008180Y010182D01*
X008180Y010602D01*
X008453Y010602D01*
X008518Y010592D01*
X008581Y010571D01*
X008640Y010541D01*
X008694Y010502D01*
X008740Y010456D01*
X008779Y010402D01*
X008809Y010343D01*
X008830Y010280D01*
X008840Y010215D01*
X008840Y010182D01*
X008180Y010182D01*
X008180Y010182D01*
X008180Y010182D01*
X008840Y010182D01*
X008840Y010149D01*
X008830Y010084D01*
X008809Y010021D01*
X008779Y009962D01*
X008740Y009908D01*
X008694Y009862D01*
X008640Y009823D01*
X008581Y009793D01*
X008518Y009772D01*
X008453Y009762D01*
X008180Y009762D01*
X008180Y010182D01*
X008180Y010182D01*
X008180Y009762D01*
X007907Y009762D01*
X007842Y009772D01*
X007684Y009849D02*
X007370Y009849D01*
X007370Y010007D02*
X007558Y010007D01*
X007520Y010166D02*
X007370Y010166D01*
X007370Y010324D02*
X007545Y010324D01*
X007647Y010483D02*
X007370Y010483D01*
X007370Y010641D02*
X014870Y010641D01*
X014870Y010483D02*
X013929Y010483D01*
X013842Y010570D02*
X013518Y010570D01*
X013290Y010342D01*
X013290Y010018D01*
X013518Y009790D01*
X013842Y009790D01*
X014070Y010018D01*
X014070Y010342D01*
X013842Y010570D01*
X014070Y010324D02*
X014870Y010324D01*
X014870Y010166D02*
X014070Y010166D01*
X014059Y010007D02*
X014870Y010007D01*
X014870Y009849D02*
X013900Y009849D01*
X013880Y009532D02*
X014870Y009532D01*
X014870Y009690D02*
X013360Y009690D01*
X013360Y009680D02*
X013360Y009858D01*
X013108Y010110D01*
X012930Y010110D01*
X012930Y009680D01*
X012930Y009680D01*
X013360Y009680D01*
X012930Y009680D01*
X012930Y009680D01*
X012930Y009680D01*
X012500Y009680D01*
X012500Y009858D01*
X012752Y010110D01*
X012930Y010110D01*
X012930Y009680D01*
X012930Y009250D01*
X013108Y009250D01*
X013360Y009502D01*
X013360Y009680D01*
X013360Y009532D02*
X013480Y009532D01*
X013321Y009373D02*
X013231Y009373D01*
X013290Y009215D02*
X008800Y009215D01*
X008779Y009056D02*
X013290Y009056D01*
X013411Y008898D02*
X012282Y008898D01*
X012460Y008739D02*
X013782Y008739D01*
X013940Y008581D02*
X012619Y008581D01*
X012975Y008422D02*
X013940Y008422D01*
X013940Y008264D02*
X013060Y008264D01*
X013060Y008105D02*
X013940Y008105D01*
X013940Y007947D02*
X012984Y007947D01*
X012621Y007471D02*
X011658Y007471D01*
X011499Y007630D02*
X013940Y007630D01*
X013940Y007788D02*
X011341Y007788D01*
X011376Y007947D02*
X010984Y007947D01*
X011060Y008105D02*
X011300Y008105D01*
X011300Y008264D02*
X011103Y008264D01*
X011261Y008422D02*
X011385Y008422D01*
X011078Y008898D02*
X008673Y008898D01*
X008717Y008422D02*
X009385Y008422D01*
X009300Y008264D02*
X008798Y008264D01*
X008799Y008105D02*
X009300Y008105D01*
X009376Y007947D02*
X008722Y007947D01*
X008668Y007471D02*
X009202Y007471D01*
X009361Y007630D02*
X004999Y007630D01*
X004841Y007788D02*
X009519Y007788D01*
X009740Y007471D02*
X009934Y007471D01*
X009800Y007313D02*
X009581Y007313D01*
X009423Y007154D02*
X009800Y007154D01*
X009827Y006996D02*
X009264Y006996D01*
X009984Y007947D02*
X010376Y007947D01*
X010300Y008105D02*
X010060Y008105D01*
X010060Y008264D02*
X010300Y008264D01*
X010385Y008422D02*
X009975Y008422D01*
X008752Y009373D02*
X012629Y009373D01*
X012752Y009250D02*
X012500Y009502D01*
X012500Y009680D01*
X012930Y009680D01*
X012930Y009680D01*
X012930Y009250D01*
X012752Y009250D01*
X012930Y009373D02*
X012930Y009373D01*
X012930Y009532D02*
X012930Y009532D01*
X012930Y009690D02*
X012930Y009690D01*
X012930Y009849D02*
X012930Y009849D01*
X012930Y010007D02*
X012930Y010007D01*
X013211Y010007D02*
X013301Y010007D01*
X013290Y010166D02*
X008840Y010166D01*
X008815Y010324D02*
X013290Y010324D01*
X013431Y010483D02*
X008713Y010483D01*
X008802Y010007D02*
X012649Y010007D01*
X012500Y009849D02*
X008676Y009849D01*
X008569Y009532D02*
X012500Y009532D01*
X012500Y009690D02*
X007370Y009690D01*
X006990Y009849D02*
X006617Y009849D01*
X006776Y010007D02*
X006990Y010007D01*
X006990Y010166D02*
X006870Y010166D01*
X006870Y010324D02*
X006990Y010324D01*
X006990Y010483D02*
X006870Y010483D01*
X006870Y010641D02*
X006990Y010641D01*
X006990Y010800D02*
X006870Y010800D01*
X006870Y010958D02*
X006949Y010958D01*
X006873Y011275D02*
X006870Y011275D01*
X006870Y011434D02*
X006981Y011434D01*
X006870Y011592D02*
X009725Y011592D01*
X009725Y011589D02*
X009794Y011422D01*
X009922Y011294D01*
X010089Y011225D01*
X010271Y011225D01*
X010438Y011294D01*
X010566Y011422D01*
X010635Y011589D01*
X010635Y011771D01*
X010566Y011938D01*
X010438Y012066D01*
X010271Y012135D01*
X010089Y012135D01*
X009922Y012066D01*
X009794Y011938D01*
X009725Y011771D01*
X009725Y011589D01*
X009725Y011751D02*
X006870Y011751D01*
X006870Y011909D02*
X009782Y011909D01*
X009927Y012068D02*
X009336Y012068D01*
X009495Y012226D02*
X014870Y012226D01*
X014870Y012068D02*
X011493Y012068D01*
X011385Y012175D02*
X011180Y012175D01*
X011180Y011680D01*
X011675Y011680D01*
X011675Y011885D01*
X011385Y012175D01*
X011180Y012175D02*
X010975Y012175D01*
X010685Y011885D01*
X010685Y011680D01*
X011180Y011680D01*
X011180Y011680D01*
X011180Y011680D01*
X011675Y011680D01*
X011675Y011475D01*
X011385Y011185D01*
X011180Y011185D01*
X011180Y011680D01*
X011180Y011680D01*
X011180Y011680D01*
X011180Y012175D01*
X011180Y012068D02*
X011180Y012068D01*
X011180Y011909D02*
X011180Y011909D01*
X011180Y011751D02*
X011180Y011751D01*
X011180Y011680D02*
X010685Y011680D01*
X010685Y011475D01*
X010975Y011185D01*
X011180Y011185D01*
X011180Y011680D01*
X011180Y011592D02*
X011180Y011592D01*
X011180Y011434D02*
X011180Y011434D01*
X011180Y011275D02*
X011180Y011275D01*
X011475Y011275D02*
X014870Y011275D01*
X014870Y011117D02*
X007500Y011117D01*
X007487Y011275D02*
X009969Y011275D01*
X009790Y011434D02*
X007379Y011434D01*
X007411Y010958D02*
X014870Y010958D01*
X014870Y010800D02*
X007370Y010800D01*
X006490Y010800D02*
X005420Y010800D01*
X005420Y010958D02*
X006490Y010958D01*
X006490Y011117D02*
X005420Y011117D01*
X005420Y011275D02*
X006490Y011275D01*
X006490Y011434D02*
X005420Y011434D01*
X005420Y011592D02*
X006490Y011592D01*
X006490Y011751D02*
X005420Y011751D01*
X005420Y011909D02*
X006490Y011909D01*
X006490Y012068D02*
X005420Y012068D01*
X005420Y012226D02*
X006490Y012226D01*
X005695Y012967D02*
X005420Y012692D01*
X005420Y010562D01*
X005496Y010562D01*
X005635Y010504D01*
X005742Y010397D01*
X005800Y010258D01*
X005800Y010106D01*
X005742Y009967D01*
X005635Y009860D01*
X005496Y009802D01*
X004864Y009802D01*
X004725Y009860D01*
X004618Y009967D01*
X004560Y010106D01*
X004560Y010258D01*
X004618Y010397D01*
X004725Y010504D01*
X004864Y010562D01*
X004940Y010562D01*
X004940Y012692D01*
X004665Y012967D01*
X004665Y013393D01*
X004967Y013695D01*
X005393Y013695D01*
X005695Y013393D01*
X005695Y012967D01*
X005695Y013019D02*
X007625Y013019D01*
X007625Y012950D02*
X007950Y012625D01*
X008170Y012625D01*
X008170Y013170D01*
X008190Y013170D01*
X008190Y013190D01*
X008735Y013190D01*
X008735Y013410D01*
X008410Y013735D01*
X008190Y013735D01*
X008190Y013190D01*
X008170Y013190D01*
X008170Y013735D01*
X007950Y013735D01*
X007625Y013410D01*
X007625Y013190D01*
X008170Y013190D01*
X008170Y013170D01*
X007625Y013170D01*
X007625Y012950D01*
X007715Y012860D02*
X005588Y012860D01*
X005430Y012702D02*
X007874Y012702D01*
X008170Y012702D02*
X008190Y012702D01*
X008190Y012625D02*
X008410Y012625D01*
X008735Y012950D01*
X008735Y013170D01*
X008190Y013170D01*
X008190Y012625D01*
X008170Y012860D02*
X008190Y012860D01*
X008190Y013019D02*
X008170Y013019D01*
X008170Y013177D02*
X005695Y013177D01*
X005695Y013336D02*
X007625Y013336D01*
X007709Y013494D02*
X005594Y013494D01*
X005436Y013653D02*
X007868Y013653D01*
X008170Y013653D02*
X008190Y013653D01*
X008190Y013494D02*
X008170Y013494D01*
X008170Y013336D02*
X008190Y013336D01*
X008190Y013177D02*
X012408Y013177D01*
X012250Y013019D02*
X008735Y013019D01*
X008645Y012860D02*
X009591Y012860D01*
X009433Y012702D02*
X008486Y012702D01*
X008735Y013336D02*
X009710Y013336D01*
X009710Y013292D02*
X009792Y013210D01*
X011568Y013210D01*
X011650Y013292D01*
X011650Y015068D01*
X011568Y015150D01*
X009792Y015150D01*
X009750Y015108D01*
X009750Y015600D01*
X009781Y015582D01*
X009826Y015570D01*
X010600Y015570D01*
X010600Y016500D01*
X010760Y016500D01*
X010760Y016660D01*
X010600Y016660D01*
X010600Y017590D01*
X010496Y017590D01*
X010523Y017617D01*
X010565Y017674D01*
X010597Y017737D01*
X010619Y017805D01*
X010630Y017875D01*
X010630Y018170D01*
X010190Y018170D01*
X010190Y018190D01*
X010170Y018190D01*
X010170Y018900D01*
X010145Y018900D01*
X010075Y018889D01*
X010007Y018867D01*
X009944Y018835D01*
X009887Y018793D01*
X009837Y018743D01*
X009795Y018686D01*
X009763Y018623D01*
X009741Y018555D01*
X009730Y018485D01*
X009730Y018190D01*
X010170Y018190D01*
X010170Y018170D01*
X009730Y018170D01*
X009730Y017875D01*
X009741Y017805D01*
X009763Y017737D01*
X009795Y017674D01*
X009837Y017617D01*
X009864Y017590D01*
X009826Y017590D01*
X009781Y017578D01*
X009740Y017554D01*
X009706Y017520D01*
X009682Y017479D01*
X009670Y017434D01*
X009670Y016660D01*
X010600Y016660D01*
X010600Y016500D01*
X009670Y016500D01*
X009670Y016348D01*
X009668Y016350D01*
X007892Y016350D01*
X007810Y016268D01*
X007810Y014492D01*
X007892Y014410D01*
X009668Y014410D01*
X009710Y014452D01*
X009710Y013292D01*
X009710Y013494D02*
X008651Y013494D01*
X008492Y013653D02*
X009710Y013653D01*
X009710Y013811D02*
X000360Y013811D01*
X000360Y013653D02*
X004924Y013653D01*
X004766Y013494D02*
X002216Y013494D01*
X002182Y013528D02*
X002298Y013412D01*
X002360Y013262D01*
X002360Y013098D01*
X002298Y012948D01*
X002182Y012832D01*
X002032Y012770D01*
X001328Y012770D01*
X001178Y012832D01*
X001062Y012948D01*
X001000Y013098D01*
X001000Y013262D01*
X001062Y013412D01*
X001178Y013528D01*
X001328Y013590D01*
X002032Y013590D01*
X002182Y013528D01*
X002329Y013336D02*
X004665Y013336D01*
X004665Y013177D02*
X002360Y013177D01*
X002327Y013019D02*
X004665Y013019D01*
X004772Y012860D02*
X002210Y012860D01*
X002123Y012597D02*
X002055Y012619D01*
X001985Y012630D01*
X001690Y012630D01*
X001690Y012190D01*
X001670Y012190D01*
X001670Y012630D01*
X001375Y012630D01*
X001305Y012619D01*
X001237Y012597D01*
X001174Y012565D01*
X001117Y012523D01*
X001067Y012473D01*
X001025Y012416D01*
X000993Y012353D01*
X000971Y012285D01*
X000960Y012215D01*
X000960Y012190D01*
X001670Y012190D01*
X001670Y012170D01*
X001690Y012170D01*
X001690Y012190D01*
X002400Y012190D01*
X002400Y012215D01*
X002389Y012285D01*
X002367Y012353D01*
X002335Y012416D01*
X002293Y012473D01*
X002243Y012523D01*
X002186Y012565D01*
X002123Y012597D01*
X002216Y012543D02*
X004940Y012543D01*
X004940Y012385D02*
X002351Y012385D01*
X002398Y012226D02*
X004940Y012226D01*
X004940Y012068D02*
X002387Y012068D01*
X002389Y012075D02*
X002400Y012145D01*
X002400Y012170D01*
X001690Y012170D01*
X001690Y011730D01*
X001985Y011730D01*
X002055Y011741D01*
X002123Y011763D01*
X002186Y011795D01*
X002243Y011837D01*
X002293Y011887D01*
X002335Y011944D01*
X002367Y012007D01*
X002389Y012075D01*
X002309Y011909D02*
X004940Y011909D01*
X004940Y011751D02*
X002084Y011751D01*
X001690Y011751D02*
X001670Y011751D01*
X001670Y011730D02*
X001670Y012170D01*
X000960Y012170D01*
X000960Y012145D01*
X000971Y012075D01*
X000993Y012007D01*
X001025Y011944D01*
X001067Y011887D01*
X001117Y011837D01*
X001174Y011795D01*
X001237Y011763D01*
X001305Y011741D01*
X001375Y011730D01*
X001670Y011730D01*
X001670Y011909D02*
X001690Y011909D01*
X001690Y012068D02*
X001670Y012068D01*
X001670Y012226D02*
X001690Y012226D01*
X001690Y012385D02*
X001670Y012385D01*
X001670Y012543D02*
X001690Y012543D01*
X001144Y012543D02*
X000360Y012543D01*
X000360Y012385D02*
X001009Y012385D01*
X000962Y012226D02*
X000360Y012226D01*
X000360Y012068D02*
X000973Y012068D01*
X001051Y011909D02*
X000360Y011909D01*
X000360Y011751D02*
X001276Y011751D01*
X001150Y012860D02*
X000360Y012860D01*
X000360Y012702D02*
X004930Y012702D01*
X005420Y012543D02*
X009274Y012543D01*
X009116Y012385D02*
X005420Y012385D01*
X005420Y010641D02*
X006490Y010641D01*
X006490Y010483D02*
X005657Y010483D01*
X005772Y010324D02*
X006490Y010324D01*
X006397Y010166D02*
X005800Y010166D01*
X005759Y010007D02*
X006238Y010007D01*
X006080Y009849D02*
X005608Y009849D01*
X005569Y009532D02*
X005763Y009532D01*
X005921Y009690D02*
X004370Y009690D01*
X004370Y009532D02*
X004791Y009532D01*
X004608Y009373D02*
X004370Y009373D01*
X004370Y009215D02*
X004560Y009215D01*
X004581Y009056D02*
X004370Y009056D01*
X004370Y008898D02*
X004687Y008898D01*
X004370Y008739D02*
X005970Y008739D01*
X005812Y008581D02*
X004370Y008581D01*
X004370Y008422D02*
X004643Y008422D01*
X004562Y008264D02*
X004370Y008264D01*
X004524Y008105D02*
X004561Y008105D01*
X004303Y007788D02*
X000360Y007788D01*
X000360Y007630D02*
X004462Y007630D01*
X004620Y007471D02*
X003926Y007471D01*
X004060Y007313D02*
X004583Y007313D01*
X004560Y007154D02*
X004060Y007154D01*
X004033Y006996D02*
X004606Y006996D01*
X004780Y006837D02*
X003874Y006837D01*
X003854Y006600D02*
X003680Y006600D01*
X003680Y006180D01*
X003680Y006180D01*
X004100Y006180D01*
X004100Y006354D01*
X003854Y006600D01*
X003934Y006520D02*
X004763Y006520D01*
X004603Y006362D02*
X004092Y006362D01*
X004100Y006203D02*
X004560Y006203D01*
X004586Y006045D02*
X004100Y006045D01*
X004100Y006006D02*
X004100Y006180D01*
X003680Y006180D01*
X003680Y006180D01*
X003680Y006180D01*
X003260Y006180D01*
X003260Y006354D01*
X003506Y006600D01*
X003680Y006600D01*
X003680Y006180D01*
X003680Y005760D01*
X003854Y005760D01*
X004100Y006006D01*
X003980Y005886D02*
X004699Y005886D01*
X004631Y005411D02*
X000360Y005411D01*
X000360Y005569D02*
X014870Y005569D01*
X014870Y005411D02*
X008729Y005411D01*
X008740Y002399D02*
X010638Y002399D01*
X010670Y002399D02*
X010690Y002399D01*
X010690Y002241D02*
X010670Y002241D01*
X010670Y002082D02*
X010690Y002082D01*
X010690Y001924D02*
X010670Y001924D01*
X010670Y001765D02*
X010690Y001765D01*
X010690Y001607D02*
X010670Y001607D01*
X010670Y001448D02*
X010690Y001448D01*
X010690Y001290D02*
X010670Y001290D01*
X010670Y001131D02*
X010690Y001131D01*
X010326Y001131D02*
X008800Y001131D01*
X008787Y001290D02*
X010246Y001290D01*
X010230Y001448D02*
X008691Y001448D01*
X008699Y001924D02*
X010230Y001924D01*
X010250Y002082D02*
X008790Y002082D01*
X008800Y002241D02*
X010335Y002241D01*
X013736Y005886D02*
X014870Y005886D01*
X014870Y005728D02*
X000360Y005728D01*
X000360Y005886D02*
X001437Y005886D01*
X001523Y005800D02*
X001837Y005800D01*
X002060Y006023D01*
X002060Y006337D01*
X001837Y006560D01*
X001523Y006560D01*
X001300Y006337D01*
X001300Y006023D01*
X001523Y005800D01*
X001300Y006045D02*
X000360Y006045D01*
X000360Y006203D02*
X001300Y006203D01*
X001324Y006362D02*
X000360Y006362D01*
X000360Y006520D02*
X001483Y006520D01*
X001506Y006760D02*
X001260Y007006D01*
X001260Y007180D01*
X001680Y007180D01*
X001680Y007180D01*
X001680Y006760D01*
X001506Y006760D01*
X001429Y006837D02*
X000360Y006837D01*
X000360Y006679D02*
X002050Y006679D01*
X002053Y006520D02*
X001877Y006520D01*
X002036Y006362D02*
X002211Y006362D01*
X002060Y006203D02*
X003260Y006203D01*
X003260Y006180D02*
X003260Y006006D01*
X003506Y005760D01*
X003680Y005760D01*
X003680Y006180D01*
X003680Y006180D01*
X003260Y006180D01*
X003260Y006045D02*
X002060Y006045D01*
X001923Y005886D02*
X003380Y005886D01*
X003680Y005886D02*
X003680Y005886D01*
X003680Y006045D02*
X003680Y006045D01*
X003680Y006203D02*
X003680Y006203D01*
X003680Y006362D02*
X003680Y006362D01*
X003680Y006520D02*
X003680Y006520D01*
X003426Y006520D02*
X002807Y006520D01*
X002649Y006362D02*
X003268Y006362D01*
X002587Y007060D02*
X002273Y007060D01*
X001680Y006996D02*
X001680Y006996D01*
X001680Y007154D02*
X001680Y007154D01*
X001680Y007313D02*
X001680Y007313D01*
X001680Y007471D02*
X001680Y007471D01*
X001377Y007471D02*
X000360Y007471D01*
X000360Y007313D02*
X001260Y007313D01*
X001260Y007154D02*
X000360Y007154D01*
X000360Y006996D02*
X001271Y006996D01*
X001680Y006837D02*
X001680Y006837D01*
X000360Y005252D02*
X004560Y005252D01*
X004565Y005094D02*
X000360Y005094D01*
X000360Y002399D02*
X001299Y002399D01*
X001095Y002241D02*
X000360Y002241D01*
X000360Y002082D02*
X000970Y002082D01*
X000904Y001924D02*
X000360Y001924D01*
X000360Y001765D02*
X000870Y001765D01*
X000870Y001607D02*
X000360Y001607D01*
X000360Y001448D02*
X000899Y001448D01*
X000965Y001290D02*
X000360Y001290D01*
X000360Y001131D02*
X001084Y001131D01*
X001272Y000973D02*
X000360Y000973D01*
X000360Y000497D02*
X014870Y000497D01*
X014870Y000360D02*
X014870Y019496D01*
X000360Y019496D01*
X000360Y000360D01*
X014870Y000360D01*
X014870Y006045D02*
X013838Y006045D01*
X013860Y006203D02*
X014870Y006203D01*
X014870Y006362D02*
X013819Y006362D01*
X013817Y006996D02*
X013940Y006996D01*
X013940Y007154D02*
X013860Y007154D01*
X013839Y007313D02*
X013940Y007313D01*
X013940Y007471D02*
X013739Y007471D01*
X014420Y007471D02*
X014870Y007471D01*
X014870Y007313D02*
X014420Y007313D01*
X014420Y007154D02*
X014870Y007154D01*
X014870Y006996D02*
X014420Y006996D01*
X014420Y006837D02*
X014870Y006837D01*
X014870Y006679D02*
X014420Y006679D01*
X014359Y006520D02*
X014870Y006520D01*
X014870Y007630D02*
X014420Y007630D01*
X014420Y007788D02*
X014870Y007788D01*
X014870Y007947D02*
X014420Y007947D01*
X014420Y008105D02*
X014870Y008105D01*
X014870Y008264D02*
X014420Y008264D01*
X014420Y008422D02*
X014870Y008422D01*
X014870Y008581D02*
X014420Y008581D01*
X014415Y008739D02*
X014870Y008739D01*
X014870Y008898D02*
X014302Y008898D01*
X014143Y009056D02*
X014870Y009056D01*
X014870Y009215D02*
X014070Y009215D01*
X014039Y009373D02*
X014870Y009373D01*
X013460Y009849D02*
X013360Y009849D01*
X012099Y008422D02*
X011975Y008422D01*
X012060Y008264D02*
X012257Y008264D01*
X012300Y008105D02*
X012060Y008105D01*
X011984Y007947D02*
X012376Y007947D01*
X010885Y011275D02*
X010391Y011275D01*
X010570Y011434D02*
X010726Y011434D01*
X010685Y011592D02*
X010635Y011592D01*
X010635Y011751D02*
X010685Y011751D01*
X010709Y011909D02*
X010578Y011909D01*
X010433Y012068D02*
X010867Y012068D01*
X011651Y011909D02*
X014870Y011909D01*
X014870Y011751D02*
X011675Y011751D01*
X011675Y011592D02*
X014870Y011592D01*
X014870Y011434D02*
X011634Y011434D01*
X012312Y012543D02*
X012800Y012543D01*
X012800Y012523D02*
X013023Y012300D01*
X013337Y012300D01*
X013560Y012523D01*
X013560Y012837D01*
X013337Y013060D01*
X013023Y013060D01*
X012800Y012837D01*
X012800Y012523D01*
X012800Y012702D02*
X012470Y012702D01*
X012629Y012860D02*
X012823Y012860D01*
X012787Y013019D02*
X012981Y013019D01*
X012946Y013177D02*
X014870Y013177D01*
X014870Y013019D02*
X013379Y013019D01*
X013537Y012860D02*
X014870Y012860D01*
X014870Y012702D02*
X013560Y012702D01*
X013560Y012543D02*
X014870Y012543D01*
X014870Y012385D02*
X013422Y012385D01*
X012938Y012385D02*
X009653Y012385D01*
X009710Y013970D02*
X000360Y013970D01*
X000360Y014128D02*
X009710Y014128D01*
X009710Y014287D02*
X000360Y014287D01*
X000360Y014445D02*
X007857Y014445D01*
X007810Y014604D02*
X000360Y014604D01*
X000360Y014762D02*
X001240Y014762D01*
X001237Y014763D02*
X001305Y014741D01*
X001375Y014730D01*
X001670Y014730D01*
X001670Y015170D01*
X001690Y015170D01*
X001690Y015190D01*
X001670Y015190D01*
X001670Y015630D01*
X001375Y015630D01*
X001305Y015619D01*
X001237Y015597D01*
X001174Y015565D01*
X001117Y015523D01*
X001067Y015473D01*
X001025Y015416D01*
X000993Y015353D01*
X000971Y015285D01*
X000960Y015215D01*
X000960Y015190D01*
X001670Y015190D01*
X001670Y015170D01*
X000960Y015170D01*
X000960Y015145D01*
X000971Y015075D01*
X000993Y015007D01*
X001025Y014944D01*
X001067Y014887D01*
X001117Y014837D01*
X001174Y014795D01*
X001237Y014763D01*
X001042Y014921D02*
X000360Y014921D01*
X000360Y015079D02*
X000970Y015079D01*
X000964Y015238D02*
X000360Y015238D01*
X000360Y015396D02*
X001015Y015396D01*
X001160Y015555D02*
X000360Y015555D01*
X000360Y015713D02*
X004775Y015713D01*
X004763Y015737D02*
X004795Y015674D01*
X004837Y015617D01*
X004887Y015567D01*
X004944Y015525D01*
X005007Y015493D01*
X005075Y015471D01*
X005145Y015460D01*
X005170Y015460D01*
X005170Y016170D01*
X005190Y016170D01*
X005190Y016190D01*
X005630Y016190D01*
X005630Y016485D01*
X005619Y016555D01*
X005597Y016623D01*
X005565Y016686D01*
X005523Y016743D01*
X005473Y016793D01*
X005416Y016835D01*
X005353Y016867D01*
X005285Y016889D01*
X005215Y016900D01*
X005190Y016900D01*
X005190Y016190D01*
X005170Y016190D01*
X005170Y016900D01*
X005145Y016900D01*
X005075Y016889D01*
X005007Y016867D01*
X004944Y016835D01*
X004887Y016793D01*
X004837Y016743D01*
X004795Y016686D01*
X004763Y016623D01*
X004741Y016555D01*
X004730Y016485D01*
X004730Y016190D01*
X005170Y016190D01*
X005170Y016170D01*
X004730Y016170D01*
X004730Y015875D01*
X004741Y015805D01*
X004763Y015737D01*
X004730Y015872D02*
X002221Y015872D01*
X002182Y015832D02*
X002298Y015948D01*
X002360Y016098D01*
X002360Y016262D01*
X002298Y016412D01*
X002182Y016528D01*
X002032Y016590D01*
X001328Y016590D01*
X001178Y016528D01*
X001062Y016412D01*
X001000Y016262D01*
X001000Y016098D01*
X001062Y015948D01*
X001178Y015832D01*
X001328Y015770D01*
X002032Y015770D01*
X002182Y015832D01*
X002123Y015597D02*
X002055Y015619D01*
X001985Y015630D01*
X001690Y015630D01*
X001690Y015190D01*
X002400Y015190D01*
X002400Y015215D01*
X002389Y015285D01*
X002367Y015353D01*
X002335Y015416D01*
X002293Y015473D01*
X002243Y015523D01*
X002186Y015565D01*
X002123Y015597D01*
X002200Y015555D02*
X004904Y015555D01*
X005170Y015555D02*
X005190Y015555D01*
X005190Y015460D02*
X005215Y015460D01*
X005285Y015471D01*
X005353Y015493D01*
X005416Y015525D01*
X005473Y015567D01*
X005523Y015617D01*
X005565Y015674D01*
X005597Y015737D01*
X005619Y015805D01*
X005630Y015875D01*
X005630Y016170D01*
X005190Y016170D01*
X005190Y015460D01*
X005170Y015713D02*
X005190Y015713D01*
X005190Y015872D02*
X005170Y015872D01*
X005170Y016030D02*
X005190Y016030D01*
X005190Y016189D02*
X005770Y016189D01*
X005770Y016347D02*
X005630Y016347D01*
X005627Y016506D02*
X005770Y016506D01*
X005770Y016532D02*
X005832Y016682D01*
X005948Y016798D01*
X006098Y016860D01*
X006262Y016860D01*
X006412Y016798D01*
X006528Y016682D01*
X006590Y016532D01*
X006590Y015828D01*
X006528Y015678D01*
X006412Y015562D01*
X006262Y015500D01*
X006098Y015500D01*
X005948Y015562D01*
X005832Y015678D01*
X005770Y015828D01*
X005770Y016532D01*
X005825Y016664D02*
X005576Y016664D01*
X005433Y016823D02*
X006008Y016823D01*
X006352Y016823D02*
X007008Y016823D01*
X006948Y016798D02*
X006832Y016682D01*
X006770Y016532D01*
X006770Y015828D01*
X006832Y015678D01*
X006948Y015562D01*
X007098Y015500D01*
X007262Y015500D01*
X007412Y015562D01*
X007528Y015678D01*
X007590Y015828D01*
X007590Y016532D01*
X007528Y016682D01*
X007412Y016798D01*
X007262Y016860D01*
X007098Y016860D01*
X006948Y016798D01*
X006825Y016664D02*
X006535Y016664D01*
X006590Y016506D02*
X006770Y016506D01*
X006770Y016347D02*
X006590Y016347D01*
X006590Y016189D02*
X006770Y016189D01*
X006770Y016030D02*
X006590Y016030D01*
X006590Y015872D02*
X006770Y015872D01*
X006818Y015713D02*
X006542Y015713D01*
X006393Y015555D02*
X006967Y015555D01*
X007393Y015555D02*
X007810Y015555D01*
X007810Y015713D02*
X007542Y015713D01*
X007590Y015872D02*
X007810Y015872D01*
X007810Y016030D02*
X007590Y016030D01*
X007590Y016189D02*
X007810Y016189D01*
X007889Y016347D02*
X007590Y016347D01*
X007590Y016506D02*
X010600Y016506D01*
X010600Y016664D02*
X010760Y016664D01*
X010760Y016660D02*
X010760Y017590D01*
X010920Y017590D01*
X010832Y017678D01*
X010770Y017828D01*
X010770Y018532D01*
X010832Y018682D01*
X010948Y018798D01*
X011098Y018860D01*
X011262Y018860D01*
X011412Y018798D01*
X011528Y018682D01*
X011590Y018532D01*
X011590Y017828D01*
X011528Y017678D01*
X011440Y017590D01*
X011534Y017590D01*
X011579Y017578D01*
X011620Y017554D01*
X011654Y017520D01*
X011678Y017479D01*
X011690Y017434D01*
X011690Y016660D01*
X010760Y016660D01*
X010760Y016506D02*
X013261Y016506D01*
X013260Y016506D02*
X013506Y016260D01*
X013680Y016260D01*
X013854Y016260D01*
X014100Y016506D01*
X014100Y016680D01*
X014100Y016854D01*
X013854Y017100D01*
X013680Y017100D01*
X013680Y016680D01*
X013680Y016680D01*
X014100Y016680D01*
X013680Y016680D01*
X013680Y016680D01*
X013680Y016680D01*
X013260Y016680D01*
X013260Y016854D01*
X013506Y017100D01*
X013680Y017100D01*
X013680Y016680D01*
X013680Y016260D01*
X013680Y016680D01*
X013680Y016680D01*
X013260Y016680D01*
X013260Y016506D01*
X013260Y016664D02*
X011690Y016664D01*
X011690Y016823D02*
X013260Y016823D01*
X013387Y016981D02*
X011690Y016981D01*
X011690Y017140D02*
X014870Y017140D01*
X014870Y017298D02*
X011690Y017298D01*
X011684Y017457D02*
X013310Y017457D01*
X013221Y017493D02*
X013519Y017370D01*
X013841Y017370D01*
X014139Y017493D01*
X014367Y017721D01*
X014490Y018019D01*
X014490Y018341D01*
X014367Y018639D01*
X014139Y018867D01*
X013841Y018990D01*
X013519Y018990D01*
X013221Y018867D01*
X012993Y018639D01*
X012870Y018341D01*
X012870Y018019D01*
X012993Y017721D01*
X013221Y017493D01*
X013100Y017615D02*
X011465Y017615D01*
X011567Y017774D02*
X012972Y017774D01*
X012906Y017932D02*
X011590Y017932D01*
X011590Y018091D02*
X012870Y018091D01*
X012870Y018249D02*
X011590Y018249D01*
X011590Y018408D02*
X012898Y018408D01*
X012963Y018566D02*
X011576Y018566D01*
X011485Y018725D02*
X013079Y018725D01*
X013261Y018883D02*
X010304Y018883D01*
X010285Y018889D02*
X010353Y018867D01*
X010416Y018835D01*
X010473Y018793D01*
X010523Y018743D01*
X010565Y018686D01*
X010597Y018623D01*
X010619Y018555D01*
X010630Y018485D01*
X010630Y018190D01*
X010190Y018190D01*
X010190Y018900D01*
X010215Y018900D01*
X010285Y018889D01*
X010190Y018883D02*
X010170Y018883D01*
X010056Y018883D02*
X002099Y018883D01*
X002139Y018867D02*
X001841Y018990D01*
X001519Y018990D01*
X001221Y018867D01*
X000993Y018639D01*
X000870Y018341D01*
X000870Y018019D01*
X000993Y017721D01*
X001221Y017493D01*
X001519Y017370D01*
X001841Y017370D01*
X002139Y017493D01*
X002367Y017721D01*
X002490Y018019D01*
X002490Y018341D01*
X002367Y018639D01*
X002139Y018867D01*
X002281Y018725D02*
X009823Y018725D01*
X009745Y018566D02*
X002397Y018566D01*
X002462Y018408D02*
X009730Y018408D01*
X009730Y018249D02*
X002490Y018249D01*
X002490Y018091D02*
X009730Y018091D01*
X009730Y017932D02*
X002454Y017932D01*
X002388Y017774D02*
X009751Y017774D01*
X009839Y017615D02*
X002260Y017615D01*
X002050Y017457D02*
X009676Y017457D01*
X009670Y017298D02*
X000360Y017298D01*
X000360Y017140D02*
X009670Y017140D01*
X009670Y016981D02*
X000360Y016981D01*
X000360Y016823D02*
X004927Y016823D01*
X004784Y016664D02*
X000360Y016664D01*
X000360Y016506D02*
X001156Y016506D01*
X001035Y016347D02*
X000360Y016347D01*
X000360Y016189D02*
X001000Y016189D01*
X001028Y016030D02*
X000360Y016030D01*
X000360Y015872D02*
X001139Y015872D01*
X001670Y015555D02*
X001690Y015555D01*
X001690Y015396D02*
X001670Y015396D01*
X001670Y015238D02*
X001690Y015238D01*
X001690Y015170D02*
X002400Y015170D01*
X002400Y015145D01*
X002389Y015075D01*
X002367Y015007D01*
X002335Y014944D01*
X002293Y014887D01*
X002243Y014837D01*
X002186Y014795D01*
X002123Y014763D01*
X002055Y014741D01*
X001985Y014730D01*
X001690Y014730D01*
X001690Y015170D01*
X001690Y015079D02*
X001670Y015079D01*
X001670Y014921D02*
X001690Y014921D01*
X001690Y014762D02*
X001670Y014762D01*
X002120Y014762D02*
X007810Y014762D01*
X007810Y014921D02*
X002318Y014921D01*
X002390Y015079D02*
X007810Y015079D01*
X007810Y015238D02*
X002396Y015238D01*
X002345Y015396D02*
X007810Y015396D01*
X007535Y016664D02*
X009670Y016664D01*
X009670Y016823D02*
X007352Y016823D01*
X005967Y015555D02*
X005456Y015555D01*
X005585Y015713D02*
X005818Y015713D01*
X005770Y015872D02*
X005630Y015872D01*
X005630Y016030D02*
X005770Y016030D01*
X005170Y016189D02*
X002360Y016189D01*
X002332Y016030D02*
X004730Y016030D01*
X004730Y016347D02*
X002325Y016347D01*
X002204Y016506D02*
X004733Y016506D01*
X005170Y016506D02*
X005190Y016506D01*
X005190Y016664D02*
X005170Y016664D01*
X005170Y016823D02*
X005190Y016823D01*
X005170Y016347D02*
X005190Y016347D01*
X001310Y017457D02*
X000360Y017457D01*
X000360Y017615D02*
X001100Y017615D01*
X000972Y017774D02*
X000360Y017774D01*
X000360Y017932D02*
X000906Y017932D01*
X000870Y018091D02*
X000360Y018091D01*
X000360Y018249D02*
X000870Y018249D01*
X000898Y018408D02*
X000360Y018408D01*
X000360Y018566D02*
X000963Y018566D01*
X001079Y018725D02*
X000360Y018725D01*
X000360Y018883D02*
X001261Y018883D01*
X000360Y019042D02*
X014870Y019042D01*
X014870Y019200D02*
X000360Y019200D01*
X000360Y019359D02*
X014870Y019359D01*
X014870Y018883D02*
X014099Y018883D01*
X014281Y018725D02*
X014870Y018725D01*
X014870Y018566D02*
X014397Y018566D01*
X014462Y018408D02*
X014870Y018408D01*
X014870Y018249D02*
X014490Y018249D01*
X014490Y018091D02*
X014870Y018091D01*
X014870Y017932D02*
X014454Y017932D01*
X014388Y017774D02*
X014870Y017774D01*
X014870Y017615D02*
X014260Y017615D01*
X014050Y017457D02*
X014870Y017457D01*
X014870Y016981D02*
X013973Y016981D01*
X014100Y016823D02*
X014870Y016823D01*
X014870Y016664D02*
X014100Y016664D01*
X014099Y016506D02*
X014870Y016506D01*
X014870Y016347D02*
X013941Y016347D01*
X013680Y016347D02*
X013680Y016347D01*
X013680Y016506D02*
X013680Y016506D01*
X013680Y016664D02*
X013680Y016664D01*
X013680Y016823D02*
X013680Y016823D01*
X013680Y016981D02*
X013680Y016981D01*
X013419Y016347D02*
X011690Y016347D01*
X011690Y016500D02*
X010760Y016500D01*
X010760Y015570D01*
X011534Y015570D01*
X011579Y015582D01*
X011620Y015606D01*
X011654Y015640D01*
X011678Y015681D01*
X011690Y015726D01*
X011690Y016500D01*
X011690Y016189D02*
X014870Y016189D01*
X014870Y016030D02*
X013867Y016030D01*
X013837Y016060D02*
X013523Y016060D01*
X013300Y015837D01*
X013300Y015523D01*
X013523Y015300D01*
X013837Y015300D01*
X014060Y015523D01*
X014060Y015837D01*
X013837Y016060D01*
X014026Y015872D02*
X014870Y015872D01*
X014870Y015713D02*
X014060Y015713D01*
X014060Y015555D02*
X014870Y015555D01*
X014870Y015396D02*
X013933Y015396D01*
X013427Y015396D02*
X009750Y015396D01*
X009750Y015238D02*
X014870Y015238D01*
X014870Y015079D02*
X011639Y015079D01*
X011650Y014921D02*
X014870Y014921D01*
X014870Y014762D02*
X011650Y014762D01*
X011650Y014604D02*
X014870Y014604D01*
X014870Y014445D02*
X011650Y014445D01*
X011650Y014287D02*
X014870Y014287D01*
X014870Y014128D02*
X011650Y014128D01*
X011650Y013970D02*
X012932Y013970D01*
X012800Y013811D02*
X011650Y013811D01*
X011650Y013653D02*
X012800Y013653D01*
X012725Y013494D02*
X011650Y013494D01*
X011650Y013336D02*
X012567Y013336D01*
X013373Y013336D02*
X014870Y013336D01*
X014870Y013494D02*
X013531Y013494D01*
X013560Y013653D02*
X014870Y013653D01*
X014870Y013811D02*
X013560Y013811D01*
X013428Y013970D02*
X014870Y013970D01*
X013300Y015555D02*
X009750Y015555D01*
X010600Y015713D02*
X010760Y015713D01*
X010760Y015872D02*
X010600Y015872D01*
X010600Y016030D02*
X010760Y016030D01*
X010760Y016189D02*
X010600Y016189D01*
X010600Y016347D02*
X010760Y016347D01*
X010760Y016823D02*
X010600Y016823D01*
X010600Y016981D02*
X010760Y016981D01*
X010760Y017140D02*
X010600Y017140D01*
X010600Y017298D02*
X010760Y017298D01*
X010760Y017457D02*
X010600Y017457D01*
X010521Y017615D02*
X010895Y017615D01*
X010793Y017774D02*
X010609Y017774D01*
X010630Y017932D02*
X010770Y017932D01*
X010770Y018091D02*
X010630Y018091D01*
X010630Y018249D02*
X010770Y018249D01*
X010770Y018408D02*
X010630Y018408D01*
X010615Y018566D02*
X010784Y018566D01*
X010875Y018725D02*
X010537Y018725D01*
X010190Y018725D02*
X010170Y018725D01*
X010170Y018566D02*
X010190Y018566D01*
X010190Y018408D02*
X010170Y018408D01*
X010170Y018249D02*
X010190Y018249D01*
X011690Y016030D02*
X013493Y016030D01*
X013334Y015872D02*
X011690Y015872D01*
X011686Y015713D02*
X013300Y015713D01*
X009710Y014445D02*
X009703Y014445D01*
X008180Y010483D02*
X008180Y010483D01*
X008180Y010324D02*
X008180Y010324D01*
X008180Y010166D02*
X008180Y010166D01*
X008180Y010007D02*
X008180Y010007D01*
X008180Y009849D02*
X008180Y009849D01*
X006921Y009690D02*
X006459Y009690D01*
X006300Y009532D02*
X006763Y009532D01*
X006604Y009373D02*
X006142Y009373D01*
X005983Y009215D02*
X006446Y009215D01*
X006287Y009056D02*
X005825Y009056D01*
X005673Y008898D02*
X006129Y008898D01*
X004752Y009849D02*
X004370Y009849D01*
X004370Y010007D02*
X004601Y010007D01*
X004560Y010166D02*
X004370Y010166D01*
X004370Y010324D02*
X004588Y010324D01*
X004703Y010483D02*
X004370Y010483D01*
X004370Y010641D02*
X004940Y010641D01*
X003990Y010166D02*
X002895Y010166D01*
X003053Y010007D02*
X003990Y010007D01*
X003990Y009849D02*
X003175Y009849D01*
X003175Y009690D02*
X003990Y009690D01*
X003990Y009532D02*
X003866Y009532D01*
X003494Y009532D02*
X003175Y009532D01*
X003073Y009373D02*
X003336Y009373D01*
X003935Y008898D02*
X003990Y008898D01*
X003990Y008739D02*
X000360Y008739D01*
X000360Y008581D02*
X003990Y008581D01*
X003975Y008422D02*
X003990Y008422D01*
X003984Y007947D02*
X004145Y007947D01*
X002445Y009215D02*
X000360Y009215D01*
X000360Y009373D02*
X001344Y009373D01*
X001294Y009422D02*
X001422Y009294D01*
X001589Y009225D01*
X001771Y009225D01*
X001938Y009294D01*
X002066Y009422D01*
X002135Y009589D01*
X002135Y009771D01*
X002066Y009938D01*
X001938Y010066D01*
X001771Y010135D01*
X001589Y010135D01*
X001422Y010066D01*
X001294Y009938D01*
X001225Y009771D01*
X001225Y009589D01*
X001294Y009422D01*
X001249Y009532D02*
X000360Y009532D01*
X000360Y009690D02*
X001225Y009690D01*
X001257Y009849D02*
X000360Y009849D01*
X000360Y010007D02*
X001364Y010007D01*
X001996Y010007D02*
X002307Y010007D01*
X002185Y009849D02*
X002103Y009849D01*
X002135Y009690D02*
X002185Y009690D01*
X002185Y009532D02*
X002111Y009532D01*
X002016Y009373D02*
X002287Y009373D01*
X001033Y013019D02*
X000360Y013019D01*
X000360Y013177D02*
X001000Y013177D01*
X001031Y013336D02*
X000360Y013336D01*
X000360Y013494D02*
X001144Y013494D01*
D21*
X005180Y013180D02*
X005180Y010182D01*
X005180Y010180D01*
X010180Y007180D02*
X010680Y006680D01*
X014180Y006680D01*
X014180Y008680D01*
X013680Y009180D01*
X012680Y008180D02*
X012180Y008680D01*
X011180Y008680D01*
X010680Y008180D01*
D22*
X007180Y011180D03*
X004180Y011180D03*
M02*
