G75*
%MOIN*%
%OFA0B0*%
%FSLAX24Y24*%
%IPPOS*%
%LPD*%
%AMOC8*
5,1,8,0,0,1.08239X$1,22.5*
%
%ADD10C,0.0000*%
%ADD11C,0.1300*%
%ADD12OC8,0.0790*%
%ADD13C,0.0520*%
%ADD14OC8,0.0540*%
%ADD15OC8,0.0520*%
%ADD16C,0.0580*%
%ADD17OC8,0.0670*%
%ADD18C,0.0670*%
%ADD19R,0.1700X0.1700*%
D10*
X000180Y000180D02*
X000180Y019676D01*
X015050Y019676D01*
X015050Y000180D01*
X000180Y000180D01*
X001050Y001680D02*
X001052Y001730D01*
X001058Y001780D01*
X001068Y001829D01*
X001082Y001877D01*
X001099Y001924D01*
X001120Y001969D01*
X001145Y002013D01*
X001173Y002054D01*
X001205Y002093D01*
X001239Y002130D01*
X001276Y002164D01*
X001316Y002194D01*
X001358Y002221D01*
X001402Y002245D01*
X001448Y002266D01*
X001495Y002282D01*
X001543Y002295D01*
X001593Y002304D01*
X001642Y002309D01*
X001693Y002310D01*
X001743Y002307D01*
X001792Y002300D01*
X001841Y002289D01*
X001889Y002274D01*
X001935Y002256D01*
X001980Y002234D01*
X002023Y002208D01*
X002064Y002179D01*
X002103Y002147D01*
X002139Y002112D01*
X002171Y002074D01*
X002201Y002034D01*
X002228Y001991D01*
X002251Y001947D01*
X002270Y001901D01*
X002286Y001853D01*
X002298Y001804D01*
X002306Y001755D01*
X002310Y001705D01*
X002310Y001655D01*
X002306Y001605D01*
X002298Y001556D01*
X002286Y001507D01*
X002270Y001459D01*
X002251Y001413D01*
X002228Y001369D01*
X002201Y001326D01*
X002171Y001286D01*
X002139Y001248D01*
X002103Y001213D01*
X002064Y001181D01*
X002023Y001152D01*
X001980Y001126D01*
X001935Y001104D01*
X001889Y001086D01*
X001841Y001071D01*
X001792Y001060D01*
X001743Y001053D01*
X001693Y001050D01*
X001642Y001051D01*
X001593Y001056D01*
X001543Y001065D01*
X001495Y001078D01*
X001448Y001094D01*
X001402Y001115D01*
X001358Y001139D01*
X001316Y001166D01*
X001276Y001196D01*
X001239Y001230D01*
X001205Y001267D01*
X001173Y001306D01*
X001145Y001347D01*
X001120Y001391D01*
X001099Y001436D01*
X001082Y001483D01*
X001068Y001531D01*
X001058Y001580D01*
X001052Y001630D01*
X001050Y001680D01*
X013050Y001680D02*
X013052Y001730D01*
X013058Y001780D01*
X013068Y001829D01*
X013082Y001877D01*
X013099Y001924D01*
X013120Y001969D01*
X013145Y002013D01*
X013173Y002054D01*
X013205Y002093D01*
X013239Y002130D01*
X013276Y002164D01*
X013316Y002194D01*
X013358Y002221D01*
X013402Y002245D01*
X013448Y002266D01*
X013495Y002282D01*
X013543Y002295D01*
X013593Y002304D01*
X013642Y002309D01*
X013693Y002310D01*
X013743Y002307D01*
X013792Y002300D01*
X013841Y002289D01*
X013889Y002274D01*
X013935Y002256D01*
X013980Y002234D01*
X014023Y002208D01*
X014064Y002179D01*
X014103Y002147D01*
X014139Y002112D01*
X014171Y002074D01*
X014201Y002034D01*
X014228Y001991D01*
X014251Y001947D01*
X014270Y001901D01*
X014286Y001853D01*
X014298Y001804D01*
X014306Y001755D01*
X014310Y001705D01*
X014310Y001655D01*
X014306Y001605D01*
X014298Y001556D01*
X014286Y001507D01*
X014270Y001459D01*
X014251Y001413D01*
X014228Y001369D01*
X014201Y001326D01*
X014171Y001286D01*
X014139Y001248D01*
X014103Y001213D01*
X014064Y001181D01*
X014023Y001152D01*
X013980Y001126D01*
X013935Y001104D01*
X013889Y001086D01*
X013841Y001071D01*
X013792Y001060D01*
X013743Y001053D01*
X013693Y001050D01*
X013642Y001051D01*
X013593Y001056D01*
X013543Y001065D01*
X013495Y001078D01*
X013448Y001094D01*
X013402Y001115D01*
X013358Y001139D01*
X013316Y001166D01*
X013276Y001196D01*
X013239Y001230D01*
X013205Y001267D01*
X013173Y001306D01*
X013145Y001347D01*
X013120Y001391D01*
X013099Y001436D01*
X013082Y001483D01*
X013068Y001531D01*
X013058Y001580D01*
X013052Y001630D01*
X013050Y001680D01*
X013050Y018180D02*
X013052Y018230D01*
X013058Y018280D01*
X013068Y018329D01*
X013082Y018377D01*
X013099Y018424D01*
X013120Y018469D01*
X013145Y018513D01*
X013173Y018554D01*
X013205Y018593D01*
X013239Y018630D01*
X013276Y018664D01*
X013316Y018694D01*
X013358Y018721D01*
X013402Y018745D01*
X013448Y018766D01*
X013495Y018782D01*
X013543Y018795D01*
X013593Y018804D01*
X013642Y018809D01*
X013693Y018810D01*
X013743Y018807D01*
X013792Y018800D01*
X013841Y018789D01*
X013889Y018774D01*
X013935Y018756D01*
X013980Y018734D01*
X014023Y018708D01*
X014064Y018679D01*
X014103Y018647D01*
X014139Y018612D01*
X014171Y018574D01*
X014201Y018534D01*
X014228Y018491D01*
X014251Y018447D01*
X014270Y018401D01*
X014286Y018353D01*
X014298Y018304D01*
X014306Y018255D01*
X014310Y018205D01*
X014310Y018155D01*
X014306Y018105D01*
X014298Y018056D01*
X014286Y018007D01*
X014270Y017959D01*
X014251Y017913D01*
X014228Y017869D01*
X014201Y017826D01*
X014171Y017786D01*
X014139Y017748D01*
X014103Y017713D01*
X014064Y017681D01*
X014023Y017652D01*
X013980Y017626D01*
X013935Y017604D01*
X013889Y017586D01*
X013841Y017571D01*
X013792Y017560D01*
X013743Y017553D01*
X013693Y017550D01*
X013642Y017551D01*
X013593Y017556D01*
X013543Y017565D01*
X013495Y017578D01*
X013448Y017594D01*
X013402Y017615D01*
X013358Y017639D01*
X013316Y017666D01*
X013276Y017696D01*
X013239Y017730D01*
X013205Y017767D01*
X013173Y017806D01*
X013145Y017847D01*
X013120Y017891D01*
X013099Y017936D01*
X013082Y017983D01*
X013068Y018031D01*
X013058Y018080D01*
X013052Y018130D01*
X013050Y018180D01*
X001050Y018180D02*
X001052Y018230D01*
X001058Y018280D01*
X001068Y018329D01*
X001082Y018377D01*
X001099Y018424D01*
X001120Y018469D01*
X001145Y018513D01*
X001173Y018554D01*
X001205Y018593D01*
X001239Y018630D01*
X001276Y018664D01*
X001316Y018694D01*
X001358Y018721D01*
X001402Y018745D01*
X001448Y018766D01*
X001495Y018782D01*
X001543Y018795D01*
X001593Y018804D01*
X001642Y018809D01*
X001693Y018810D01*
X001743Y018807D01*
X001792Y018800D01*
X001841Y018789D01*
X001889Y018774D01*
X001935Y018756D01*
X001980Y018734D01*
X002023Y018708D01*
X002064Y018679D01*
X002103Y018647D01*
X002139Y018612D01*
X002171Y018574D01*
X002201Y018534D01*
X002228Y018491D01*
X002251Y018447D01*
X002270Y018401D01*
X002286Y018353D01*
X002298Y018304D01*
X002306Y018255D01*
X002310Y018205D01*
X002310Y018155D01*
X002306Y018105D01*
X002298Y018056D01*
X002286Y018007D01*
X002270Y017959D01*
X002251Y017913D01*
X002228Y017869D01*
X002201Y017826D01*
X002171Y017786D01*
X002139Y017748D01*
X002103Y017713D01*
X002064Y017681D01*
X002023Y017652D01*
X001980Y017626D01*
X001935Y017604D01*
X001889Y017586D01*
X001841Y017571D01*
X001792Y017560D01*
X001743Y017553D01*
X001693Y017550D01*
X001642Y017551D01*
X001593Y017556D01*
X001543Y017565D01*
X001495Y017578D01*
X001448Y017594D01*
X001402Y017615D01*
X001358Y017639D01*
X001316Y017666D01*
X001276Y017696D01*
X001239Y017730D01*
X001205Y017767D01*
X001173Y017806D01*
X001145Y017847D01*
X001120Y017891D01*
X001099Y017936D01*
X001082Y017983D01*
X001068Y018031D01*
X001058Y018080D01*
X001052Y018130D01*
X001050Y018180D01*
D11*
X001680Y018180D03*
X013680Y018180D03*
X013680Y001680D03*
X001680Y001680D03*
D12*
X005180Y013180D03*
X008180Y013180D03*
D13*
X007940Y010182D02*
X008420Y010182D01*
X008420Y009182D02*
X007940Y009182D01*
X007940Y008182D02*
X008420Y008182D01*
X008420Y007182D02*
X007940Y007182D01*
X007940Y006182D02*
X008420Y006182D01*
X008420Y005182D02*
X007940Y005182D01*
X007940Y004182D02*
X008420Y004182D01*
X008420Y003182D02*
X007940Y003182D01*
X007940Y002182D02*
X008420Y002182D01*
X008420Y001182D02*
X007940Y001182D01*
X005420Y001182D02*
X004940Y001182D01*
X004940Y002182D02*
X005420Y002182D01*
X005420Y003182D02*
X004940Y003182D01*
X004940Y004182D02*
X005420Y004182D01*
X005420Y005182D02*
X004940Y005182D01*
X004940Y006182D02*
X005420Y006182D01*
X005420Y007182D02*
X004940Y007182D01*
X004940Y008182D02*
X005420Y008182D01*
X005420Y009182D02*
X004940Y009182D01*
X004940Y010182D02*
X005420Y010182D01*
D14*
X012930Y009680D03*
X013680Y009180D03*
X013680Y010180D03*
D15*
X012680Y008180D03*
X011680Y008180D03*
X010680Y008180D03*
X010180Y007180D03*
X010180Y006180D03*
X010180Y004180D03*
X011180Y004180D03*
X012180Y003680D03*
X012180Y004680D03*
X013180Y004680D03*
X013180Y003680D03*
X009680Y008180D03*
X013180Y012680D03*
X013180Y013680D03*
X013680Y015680D03*
X013680Y016680D03*
X004180Y004180D03*
X003180Y004180D03*
X003680Y006180D03*
X003680Y007180D03*
X003680Y008180D03*
X003680Y009180D03*
X002430Y006680D03*
X001680Y006180D03*
X001680Y007180D03*
D16*
X001410Y012180D02*
X001950Y012180D01*
X001950Y013180D02*
X001410Y013180D01*
X001410Y015180D02*
X001950Y015180D01*
X001950Y016180D02*
X001410Y016180D01*
X005180Y015910D02*
X005180Y016450D01*
X006180Y016450D02*
X006180Y015910D01*
X007180Y015910D02*
X007180Y016450D01*
X010180Y017910D02*
X010180Y018450D01*
X011180Y018450D02*
X011180Y017910D01*
X012910Y007180D02*
X013450Y007180D01*
X013450Y006180D02*
X012910Y006180D01*
X011680Y001950D02*
X011680Y001410D01*
X010680Y001410D02*
X010680Y001950D01*
D17*
X011180Y011680D03*
X002680Y009680D03*
D18*
X001680Y009680D03*
X010180Y011680D03*
D19*
X010680Y014180D03*
X008780Y015380D03*
X010680Y016580D03*
M02*
